<?xml version="1.0" encoding="UTF-8"?>
<svg xmlns="http://www.w3.org/2000/svg" id="Livello_2" data-name="Livello 2" viewBox="0 0 2295.16 2605.25">
  <defs>
    <style>
      .cls-1 {
        fill: #fff;
      }

      .cls-2 {
        fill: #e2070d;
      }

      .cls-3 {
        fill: #24ac00;
      }

      .cls-4 {
        fill: #020201;
      }

      .cls-5 {
        fill: #a79a32;
      }
    </style>
  </defs>
  <g id="Livello_1-2" data-name="Livello 1">
    <path class="cls-5" d="m2248.54,1152.42c2.6,11.26,3.1,22.8,4.06,34.23,3.4,40.41,5.31,80.9,4.28,121.47-1.31,51.34-5.57,102.41-13.58,153.18-17.53,111.17-51.2,217.17-100.85,318.13-.93,1.89-2.28,3.66-2.39,6.6h141.84c1.69,3.03-.2,4.74-1.02,6.55-26.78,59.63-58.25,116.69-94.11,171.34-33.49,51.03-70.67,99.22-110.98,145.04-3.5,3.97-6.96,5.56-12.28,5.54-55.66-.2-111.33-.06-166.99-.23-5.18-.02-8.93,1.47-12.78,4.91-80.52,71.85-169.54,130.92-267.16,176.96-81.86,38.61-167.17,66.78-255.95,84.46-.94.19-1.88.39-2.78.67-.44.14-.82.48-1.68,1.01v221.32c-4.72-1.66-61.63-55.64-78.18-73.88.29-2.06,2.17-1.37,3.31-1.69,3.1-.87,4.13-2.89,4.06-5.9-.07-3.12.08-6.24.08-9.36-.02-77.74-.06-155.47-.08-233.21,0-5.78-.48-11.55-1.91-17.1-3.81-14.81-17.1-24.81-32.99-25.24-14.12-.39-27.41,9.24-32.12,23.34-1.3,3.88-1.98,7.85-1.98,12,.06,82.06.05,164.11.09,246.17,0,2.84-.49,5.75.81,9.27h37.29c-2.55,4.88-69.96,70.93-78.48,77.15-25.79-25.05-51.66-50.17-77.52-75.29.2-.44.39-.88.59-1.32h35.48c2.81-2.34,2.15-4.65,2.15-6.71.03-47.51.03-95.01.03-142.52,0-22.54-.18-45.08.08-67.62.15-13.19-.68-26.34-.21-39.55.66-18.46-13.96-34.03-32.34-34.75-18.96-.75-33.49,12.03-35.83,30.37-.48,3.79-.54,7.66-.54,11.49-.06,77.26-.09,154.51-.12,231.77,0,2.64,0,5.28.06,7.92q.15,7.65,7.82,10.51c-25.82,25.08-51.35,49.88-78.03,75.79v-211.38c-5.46-2.49-10.62-2.23-15.52-2.93-55.85-7.9-110.76-20.07-164.71-36.47-138.61-42.13-264.19-108.91-376.99-199.77-14.39-11.59-28.57-23.44-42.14-35.97-3.42-3.16-6.85-4.45-11.51-4.44-55.9.14-111.81.02-167.71.21-5.31.02-8.77-1.6-12.27-5.55-57.47-64.85-107.88-134.75-150.94-209.96-19.08-33.32-36.52-67.48-52.55-102.37-1.2-2.61-2.25-5.28-3.3-7.95-.14-.36.13-.89.36-2.25h141.6c.58-3.28-.99-4.97-1.91-6.84-37.9-77.12-66.7-157.48-85.97-241.24-8.55-37.15-15.05-74.66-19.9-112.49-7.77-60.59-10.27-121.42-7.89-182.38,5.59-142.92,37.05-279.96,95.36-410.68,52.08-116.76,122.24-221.46,210.23-314.21,85.79-90.43,183.98-164.45,294.46-222.14,84.34-44.05,172.96-76.54,265.7-97.76,37.15-8.5,74.67-14.94,112.52-19.57,53.42-6.54,107.02-9.34,160.81-8.13,37.41.84,74.69,3.58,111.87,8.06,76.4,9.21,150.93,26.4,223.8,50.98,7.94,2.68,15.81,5.59,23.7,8.43,2.25.81,4.43,1.84,6.91,1.68-2.45,2.18-4.77,4.52-7.37,6.51-7.59,5.81-13.54,13.32-20.79,19.55-8.96,7.7-18.18,15.13-26.79,23.31-7.91,7.52-15.53,15.35-23.67,22.62-2.28,2.03-4.26,4.48-7.22,5.65-1.07-1.07-2.48-1.35-3.86-1.78-21.51-6.68-43.22-12.59-65.13-17.83-61.25-14.66-123.36-23.35-186.22-26.26-36.66-1.69-73.36-1.47-110.04.68-33.78,1.98-67.37,5.52-100.76,10.82-54.28,8.61-107.55,21.53-159.64,39.07-154.32,51.98-288.75,135.88-403.06,251.87-84.53,85.76-151.62,183.57-201.42,293.21-57.19,125.89-86.63,258.1-90.05,396.2-1.04,42,.91,83.9,5.05,125.73,3.59,36.29,9.11,72.27,16.65,107.93,20.03,94.65,53.07,184.56,98.88,269.78,3.4,6.32,6.94,12.55,10.2,18.44,3.14,1.12,5.8.72,8.42.72,111.8.02,223.61.02,335.41,0,2.87,0,5.75-.19,8.62-.29,2.7,1.26,5.58,1.14,8.46,1.14,156.11-.01,312.22,0,468.32-.05,2.29,0,4.83.87,6.83-1.14,56.23.51,112.46.72,168.69-.11,1.92,2.18,4.49,1.25,6.77,1.25,156.18.05,312.36.04,468.55.04,2.63,0,5.29.26,7.72-1.12,2.39.1,4.78.28,7.17.28,88.91.02,177.82-.06,266.72.17,5.95.01,8.85-2.09,11.58-7.03,38.93-70.54,69.41-144.51,90.86-222.19,6.05-1.29,12.06-2.74,18.15-3.84,10.99-1.97,21.71-5.45,33.06-5.57,3.98-.04,7.98-1.43,11.64-3.19,7.75-3.74,8.86-10.65,3.21-17.01-4.82-5.42-11.09-8.88-16.73-13.2-7.71-5.92-16.26-9.83-26.03-10.98-3.93-.46-7.8-1.5-11.7-2.27,4.38-1.34,3.31-5.52,3.91-8.42,11.13-53.58,17.91-107.75,20.04-162.41,1.82-46.74,1.08-93.47-3.61-140.07,12.48-.5,24.45-3.98,36.52-6.65,14.05-3.12,27.01-8.96,39.27-16.65,7.1-4.46,13.04-10.39,20.24-14.62Zm-1143.17,962.22h-550.05c61.93,45.59,128.62,82.27,199.45,111.47,77.83,32.08,158.38,54.16,241.49,65.8.68-1.25,1.1-1.67,1.1-2.09.1-8.63.12-17.27.21-25.9.05-5.27-.37-10.58.78-15.78,12.39-55.87,58.17-85.34,100.64-86.83,2.09-.07,4.37.39,6.39-1.57v-45.11Zm142.28,46.34c32.14.59,59.07,11.87,80.42,35.21,21.35,23.33,30.34,51.09,27.43,82.59,29.18-1.96,138.43-37.04,195.29-62.45,60.35-26.98,166.14-87.88,176.61-101.67-33.88-1.81-474.28-1.03-480.47.95.21,14.72-.52,29.55.73,45.38Zm-799.8-195.66c-3.11-.62-3.32-2.56-4.07-3.91-7.36-13.18-14.64-26.4-21.93-39.61-6.02-10.91-11.98-21.85-18.07-32.71-1.11-1.98-1.72-4.84-4.73-4.83-6.86.02-13.76-.65-20.95.49v128.44c7.55.08,14.6.42,22.16-.28v-27.17c0-8.63-.01-17.26,0-25.89.01-8.63-.07-17.27.65-25.94,1.68,1.57,2.74,3.14,3.66,4.8,5.82,10.47,11.6,20.96,17.41,31.44,7.08,12.78,14.16,25.57,21.29,38.32,1.12,2,1.71,4.8,4.75,4.78,7.13-.05,14.28.52,21.76-.42v-128.16h-21.96v80.66Zm352.03-80.64h-22.45v80.41c-.53.11-1.06.21-1.58.32-3.11-5.57-6.24-11.12-9.32-16.7-11-19.93-21.96-39.88-32.98-59.8-1.11-2-1.73-4.75-4.82-4.69-6.84.12-13.73-.66-20.39.47-1.55,9.15-1.13,123.06.4,128.21h21.34v-79.46c2.59,1.17,3.02,2.9,3.79,4.26,4.93,8.78,9.79,17.59,14.67,26.39,8.25,14.88,16.48,29.77,24.77,44.63,1.12,2.01,1.86,4.63,4.95,4.55,7.1-.19,14.25.65,21.63-.56v-128.01Zm-179.35,49.65c-.02-9.66-.52-18.16.41-27.51h61.35c0-7.93.76-15-.47-22.24h-85.34v127.88c8.53,1.45,82.45,1.13,87.6-.3,1.16-6.95,1.03-15.84-.5-21.97h-63.15c0-6.05-.15-11.3.04-16.53.19-5.4-.88-10.91.98-16.85h56.27c.6-7.72.6-14.77,0-22.47h-57.2Zm-411.83-49.91c-1.35,3.11-.95,5.77-.95,8.36-.03,18.95-.13,37.91.04,56.86.08,9.11.47,18.22,1.14,27.31,1.5,20.25,12.57,33.73,30.86,37.37,9.94,1.98,20.07,2.08,30.05.14,16.38-3.17,27.51-15.42,29.65-31.98.86-6.67,1.39-13.34,1.38-20.07-.03-23.75.06-47.5.05-71.25,0-2.08.59-4.31-1.16-6.69-7.46-.41-15.19-.61-23.3.11,0,3.45,0,6.08,0,8.7,0,22.79.01,45.58,0,68.37,0,5.51,0,11.03-1.24,16.47-1.75,7.66-6.96,12.7-14.71,13.7-2.83.36-5.76.36-8.61.15-10.57-.76-17.81-7.79-18.71-18.35-.45-5.25-.55-10.54-.56-15.81-.06-21.83,0-43.66-.05-65.49,0-2.57.7-5.31-1.35-7.88h-22.49Zm995.5-.1c-15.05,42.96-29.97,85.56-45.07,128.68h25.88c3.23-9.55,6.42-18.99,9.58-28.35h45.01c3.33,9.48,6.63,18.91,9.92,28.29h26.49c-15.6-43.37-30.96-86.07-46.26-128.61h-25.55Zm-343.26.09c-14.94,42.62-29.86,85.2-45.03,128.47h25.9c3.21-9.49,6.33-18.74,9.52-28.16h45.08c3.34,9.52,6.64,18.91,9.92,28.26h26.46c-15.56-43.27-30.91-85.93-46.25-128.57h-25.6Zm708.27,128.61h25.98c3.09-9.33,6.22-18.79,9.37-28.29h45.27c3.33,9.59,6.61,19.03,9.76,28.1h26.51c-15.6-43.37-30.95-86.02-46.19-128.36h-25.64c-14.93,42.59-29.8,85.02-45.06,128.55Zm307.12-47.56c2.57-.95,4.97-.61,7.31-.66,7.9-.15,15.83.07,23.7-.47,15.55-1.07,27.33-10.59,31.45-25.21,2.78-9.88,2.78-19.91,0-29.79-3.62-12.85-14.43-23.47-29.47-24.37-18.68-1.11-37.33-.73-55.99-.55-.4,0-.8.45-1.44.84v127.87c8.2.13,15.93.56,24.02-.26,0-8.43-.08-16.08.02-23.73.11-7.84-.47-15.7.41-23.68Zm-487.78-44.98c-3.73-17.04-12.27-28.94-27.79-35.18-10.11-4.06-20.7-4.3-31.12-2.04-19.93,4.34-32.04,17.58-38.1,36.38-5.79,17.95-6.02,36.32-1.4,54.62,5.72,22.67,24.66,42.34,52.62,41.07,24.24-1.1,42.92-17.68,45.69-42.62-3.7-1.31-7.49-2.73-11.32-3.98-3.75-1.22-7.33-3.27-11.68-3.17-1.31,4.76-2.55,9.12-4.65,13.16-8.61,16.5-29.94,18.02-40.84,2.91-2.85-3.96-4.51-8.43-5.56-13.14-2.49-11.13-2.26-22.41-1.16-33.62.68-6.93,2.58-13.68,6.98-19.38,6.11-7.89,14.3-11.19,24.06-9.84,9.41,1.3,15.41,7.14,18.81,15.82.68,1.73.55,3.87,2.89,5.08,7.09-1.91,14.44-3.88,22.59-6.07Zm-263.32,44.43c-2.37,5.78-3.39,11.26-6.38,15.96-8.15,12.8-24.78,15.05-36.03,4.83-4.62-4.19-7.29-9.49-8.72-15.4-3.14-12.98-3.21-26.11-1.05-39.23.78-4.71,2.3-9.3,4.93-13.41,5.69-8.91,13.88-13.03,24.35-12.11,9.84.86,16.06,6.65,19.82,15.5.72,1.7.47,3.9,2.89,5.37,7.19-1.7,14.8-3.43,22.73-6.2-1.94-9.06-5.24-17.1-11.44-23.75-12.93-13.87-29.35-16.64-46.89-13.28-19.69,3.77-31.96,16.76-38.23,35.24-6.14,18.11-6.51,36.71-1.88,55.25,7.13,28.6,28.48,43.72,57.79,41.3,20.88-1.73,39.83-21.53,40.16-41.89-.81-1.09-2.03-1.27-3.15-1.66-6.09-2.1-12.18-4.2-18.9-6.52Zm361.27.12c-1.91,4.88-3.27,9.49-5.44,13.69-4.55,8.79-11.66,13.69-21.98,13.23-11.19-.5-20.27-8.18-23.62-20.75-2.67-10.03-3.46-20.31-2.5-30.65.71-7.63,1.59-15.31,5.66-22.09,5.56-9.25,13.73-13.9,24.6-12.95,10.11.89,16.58,6.67,20.16,16,.58,1.51.6,3.35,2.75,4.98,7.19-1.95,15.05-3.35,22.78-6.51-3.38-14.64-10.35-26.05-23.72-32.89-11.19-5.72-23.13-6.4-35.03-3.83-21.16,4.56-33.26,18.97-39.07,38.98-4.62,15.91-4.79,32.25-1.44,48.39,5.38,25.91,24.7,45.91,54.03,44.73,20.92-.84,39.97-13.99,45.12-41.43.07-.36-.4-.82-.85-1.65-6.88-2.33-14.08-4.77-21.46-7.27Zm588-80.24c-13.07-1.48-86-.92-91.19.64v21.21c11.35,1.16,22.34-.53,33.55,1.01,0,18-.02,35.48,0,52.95.03,17.38-.12,34.77.1,52.48,8.53.2,16.08.68,24.33-.36v-105.91h33.2v-22.01Zm-1101.36,105.83v-52.73c0-8.86.03-17.73,0-26.59-.04-8.52.18-17.05-.17-25.96-4.79,0-8.61-.08-12.41.02-3.75.1-7.58-.51-11.16.49-1.56,10.47-1.03,122.22.53,127h80.5v-22.23h-57.28Zm582.57-106.46c-6.38,0-12.08-.04-17.78.02-1.86.02-3.84-.48-5.53.75-1.54,7.79-1.18,123.01.52,128.32,7.42-.13,14.98.58,22.79-.49v-128.6Zm230.31,94.5c.54-8.4.55-16.36.05-24.17-7.74-1.64-38.68-1.41-43.64.16v24.01h43.59Zm-1457.74,9.31c.07,8.86-.19,16.87.15,24.95h22.89c.32-8.56.6-16.73-.16-25.1-7.85-.34-14.93-.52-22.88.15Zm192.29,24.96v-24.81h-22.66c.19,8.58-.61,16.61.55,24.92,7.54.39,14.6.5,22.12-.11Zm1421.41-24.97c.22,8.53-.45,16.52.53,25.39,7.52-.36,14.75.62,22.25-.65v-24.74h-22.77Zm156.54-.42c-7.92.23-15.02-.49-22.78.58.17,8.48-.46,16.65.36,25.06,7.96.02,15.04.6,22.52-.38.46-8.37.54-16.37-.1-25.26Z"></path>
    <path class="cls-4" d="m2132.16,1501.25c3.9.77,7.76,1.81,11.69,2.27,9.77,1.15,18.32,5.05,26.03,10.98,5.63,4.32,11.91,7.78,16.73,13.2,5.64,6.35,4.53,13.26-3.21,17.01-3.66,1.77-7.66,3.15-11.64,3.19-11.35.12-22.06,3.59-33.06,5.57-6.08,1.09-12.1,2.55-18.15,3.83-11.53,1.55-23.08,2.96-34.38,5.97-5.76,1.53-11.61,3.17-17.51,3.69-16.44,1.44-32.47,5.42-48.71,7.97-12.47,1.96-24.88,4.06-37.46,4.62-20.31.9-40.64.93-60.95,1.95-16.26.81-32.6.24-48.9.28-18.37,1.69-36.79,1.2-55.2,1.26-18.44.06-36.87-.58-55.31-.14-8.55.2-17.16-.07-25.76-1.11-10.89-1.32-21.77-2.85-32.76-3.58-11.41-.75-22.74-2.64-34.14-3.64-8.84-.78-17.44-3.12-26.15-4.12-15.36-1.77-30.68-3.86-46.07-5.42-3.77-.52-7.69-.55-11.29-1.66-15.06-4.64-30.6-7.04-46.09-9.15-19.61-2.68-39.07-5.76-58.13-11.1-12.82-3.59-25.52-7.69-38.42-10.97-13.88-3.53-27.39-8.1-40.8-13.04-2.63-.97-5.31-2.09-8.25-1.28-1.21-1.23-2.74-1.75-4.38-2.24-11.88-3.51-23.9-6.48-35.44-11.16-13.07-5.31-26.47-9.77-39.65-14.82-13.4-5.13-26.92-9.94-39.32-17.44-6.32-3.82-12.82-7.54-19.98-9.73-7.39-2.27-13.78-6.55-20.56-10.03-8.92-4.58-17.42-10.04-26.55-14.11-9.42-4.2-18.3-9.34-27.38-14.12-11.63-6.12-22.37-13.76-33.39-20.91-11.4-7.4-23.4-14.09-32.13-24.87-2.38-2.94-4.96-3.84-8.52-4.17-12.38-1.12-24.64-2.95-36.47-7.15-9.9-3.51-19.94-6.52-30.22-8.86-8.39-1.91-16.94-2.68-25.31-4.73-12.51-3.06-24.39-8.19-37.26-10.13-16.99-2.56-33.76-6.57-51.12-6.35-14.39.18-28.78.15-43.17,0-8.4-.08-16.74.34-25.04,1.65-.94-.14-1.87-.42-2.81-.41-25.96.47-51.4,4.56-76.29,11.76-14.9,4.31-29.56,9.45-44.26,14.39-18.56,6.23-37.2,12.25-54.68,21.27-9.89,4.2-19.65,8.63-28.4,15.03-11.82,8.65-22.02,19.12-32.84,28.88-29.14,26.28-58.29,52.54-87.23,79.04-19.92,18.24-39.5,36.86-59.23,55.31-10.91,10.11-21.9,20.12-32.71,30.34-20.75,19.6-42.34,38.32-62.28,58.75-26.64,27.29-52.88,54.97-79.32,82.46-1.65,1.72-3.32,3.53-5.3,4.8-3.08,1.99-5.49.89-6.51-2.71-.76-2.66-.58-5.25,1.31-7.46,1.24-1.46,2.55-2.87,3.85-4.28,43.51-47.36,85.17-96.26,123.85-147.67,12.98-17.25,26.01-34.45,39-51.68,1.29-1.71,2.87-3.25,3.5-5.39.54-.46,1.18-.84,1.59-1.39,15.67-20.59,31.44-41.1,46.93-61.81,26.83-35.87,53.4-71.94,80.31-107.74,3.54-4.71,5.3-9.45,5.19-15.19-.17-8.16.08-16.34,2.02-24.28,2.99-12.28,5.19-24.75,9.16-36.81,1.72-5.23,3.87-10.27,5.68-15.45,5.19-14.9,10.49-29.7,17.14-44.08,7.36-15.92,16.02-30.97,25.9-45.37,5.71-8.32,12.83-15.21,21.07-21.16,6.64-4.79,14.22-7.87,20.81-12.64,2-.02,3.69-1.02,5.35-1.91,14.11-7.6,28.88-12.59,45.2-11.45.95.07,1.94.13,2.87-.03,14.22-2.48,28.63-1.5,42.92-2.02,23.71-.86,47.47-.25,71.2-.21,2.36,0,4.81-.56,7.05.74,7.79.99,15.6.54,23.41.27.96-.32,1.91-.64,2.87-.96,2.07,1.82,4.58.95,6.89,1.05,14.37.58,28.69-.95,43.03-1.29,11.26-.27,22.41-.9,33.46-3.06,10.77-2.1,21.7-3.63,32.28-6.45,14.4-3.83,27.3-11.21,39.97-18.95,15.28-9.33,30.79-18.31,45.36-28.71,9.3-6.64,18.64-13.34,26.12-22.19,6.65-7.86,12.06-16.57,17.46-25.28,11.39-18.34,13.28-37.86,7.24-58.37-.93-3.42-1.44-7.03-2.87-10.23-8.31-18.58-18.74-35.79-32.99-50.55-3.11-3.23-6.06-6.83-8.2-10.75-10.72-19.62-22.6-38.59-31.19-59.39-3.49-8.45-4.37-16.24-1.63-24.83.91-2.84,2.35-5.84,1.37-9.07,2.28-9.47,5.79-18.43,9.66-27.4,5.31-12.32,11.21-24.2,18.86-35.19,9.91-14.25,17.94-29.72,28.04-43.81,4.06-5.67,6.87-11.94,10.52-17.78,7.73-12.36,17.86-22.82,25.86-35,11.77-17.93,24.81-35.05,37.92-52.07,3.32-4.31,5.14-9.81,8.65-13.92,9.26-10.83,17.26-22.7,27.17-32.99,5.16-3.91,8.08-9.77,12.46-14.37,6.37-6.69,12.28-13.7,17.7-21.24,11.65-16.23,26.05-30.11,39.61-44.69,7.13-7.67,14.43-15.2,21.47-22.96,12.64-13.93,25.25-27.88,38.7-41.06,7.5-7.34,16.37-13,23.74-20.47,6.45-6.54,14.6-11.21,20.37-18.61,2.61-3.34,6.16-5.92,9.89-8.18,2.41-1.47,4.59-3.45,6.57-5.49,5.95-6.12,11.76-12.37,17.62-18.58,2.96-1.17,4.95-3.62,7.22-5.65,8.14-7.27,15.77-15.1,23.67-22.62,8.61-8.18,17.82-15.61,26.79-23.31,7.25-6.22,13.2-13.74,20.79-19.55,2.6-1.99,4.92-4.33,7.37-6.51,13.83-9,25.48-20.83,39.12-30.08,10.83-7.35,21.01-15.6,31.67-23.21,11.44-8.16,22.44-17,33.24-26.01,12.07-10.06,24.41-19.75,36.58-29.67,8.87-7.23,18.58-13.33,27.18-20.86,13.16-11.52,26.09-23.3,39.19-34.89,8.79-7.78,19.07-13.52,28.41-20.56,5.53-4.17,11.31-7.99,17.06-11.87,11.14-7.52,23.11-13.45,35.76-17.97,14.22-5.08,27.13-12.83,40.56-19.54,14.47-7.23,28.74-7.74,42.7,1.19,5.62,3.59,8.1,13.55,6.33,22.16-3.75,18.23-14.74,31.32-29.68,41.27-8.94,5.95-16.84,13.29-26.17,18.67-4.73,2.73-9.26,5.82-14.04,8.45-2.64,1.45-4.34,3.08-5,6.23-1.96,9.32-3.99,18.65-6.51,27.84-3.33,12.17-7.1,24.12-13.85,35.08-4.98,8.09-9.37,16.4-15.78,23.61-11.23,12.63-22.14,25.51-34.54,37.07-9.05,8.44-17.94,17.06-28.25,23.91-3.54,2.35-5.21,5.39-6.36,9.05-5.66,18.01-15.25,33.76-27.39,48.09-2.77,3.27-7.02,5.04-8.97,9.08-7.24,3.06-13.02,8.67-20.34,11.58-1.96.78-2.68,2.5-3.21,4.42-3.28,11.99-8.17,23.33-13.72,34.44-5.73,11.49-9.05,23.99-14.17,35.75-3.23,7.69-5.92,15.66-9.85,22.97-3.76,6.98-6.79,13.99-7.97,21.85-1,6.68-4.73,12.41-7.15,18.6-7.65,19.61-16.59,38.57-28.75,55.83-3.72,5.27-4.9,10.97-3.56,16.95,2.45,10.93,5,21.79,5.51,33.07.17,3.73,1.47,7.43,2.42,11.11,2.39,9.29,5.57,18.19,12.54,25.23.8.8,1.07,2.12,1.61,3.19,9.29,18.49,21.05,34.86,36.98,48.51,11.31,9.7,23.59,17.61,36.44,24.74,13.66,7.59,26.71,15.83,36.84,27.92,6.57,7.85,12.82,15.96,19.18,23.92,3.82.79,7.15-.77,10.56-1.74,2.07-.59,4.06-1.52,6.15-1.91,14.99-2.81,30.14-5.2,45.34-5.49,34.74-.68,69.49-.46,104.24-.54,19.63-.05,39.28.19,58.92.29,8.63.05,17.21.27,25.7,1.91,3.78,1.99,7.95.3,11.84,1.24,19.66,4.76,39.64,5.93,59.8,5.67,6.6-.09,13.21.93,19.61,1.42,1.51,6.6-2.87,17.8-7.78,20.58-.99.56-2.24.79-3.39.91-1.43.16-2.79.34-4.17.87-10.93,4.13-21.95,8.03-32.81,12.32-3,1.19-6.64,1.38-8.78,4.39-6.3,1.63-11.64,5.39-17.53,7.95-9.18,3.98-18.28,8.16-27.45,12.14-6.6,2.86-9.05,8.43-9.05,14.93,0,5.65,4.26,8.53,8.96,10.98,6.85,3.57,14.08,4.01,21.52,3.77,15.1-.49,28.86-5.77,42.43-11.77,11.45-4.8,23.03-9.13,35.19-11.87,13.04-2.94,25.64-7.85,39.07-8.94,9.92-.8,19.81-1.64,29.48-4.11,6.29-1.8,12.83-.85,19.24-1.73,17-2.33,34.16-3.3,51.16-5.7,4.47-.63,9.1-.09,13.66-.21,5.7-.16,11.37.29,17.09-1.2,5.19-1.35,10.4.36,15.37,2.42,8.13,3.37,16.56,6.03,23.16,12.37,6.04,5.81,8.68,12.85,8.87,21.05.55,22.71-8.95,41.24-24.67,56.66-5.74,5.63-13.9,8.23-21.43,11.29-1.1.45-2.41.47-3.42,1.06-15.79,9.17-33.46,13.78-50.11,20.85-.43.18-.79.55-1.17.82-2.81,1.23-5.8,1.9-8.61,3.26-18.06,8.72-36.73,16.08-55.09,24.14-9.32,4.1-18.89,7.71-27.61,13.09-2-.46-3.61.32-5.4,1.23-13.4,6.76-27.13,13.03-41.3,17.76-16.55,5.52-32.68,11.94-48.65,18.85-12.12,5.24-22.75,13.07-34.05,19.75-8.8,5.2-17.14,10.83-24.93,17.7-14.74,13-16.68,35.79-10.88,50.7,7.13,18.31,20.5,28.89,38.96,33.45,12.24,3.03,24.75,1.74,37.12.42,12.32-1.31,24.36-4.58,36.82-5.08,14.8-.6,29.19-4.46,43.95-5.74,12.39-1.07,24.2,2.18,36.3,3.01,2.68.18,3.66,3.09,2.27,5.49-.89,1.54-2.4,2.26-3.97,2.89-6.93,2.78-12.97,7.12-19.16,11.17-3.47,2.27-5.93,5.55-7.91,9.13-2.29,4.13-.91,8.45.62,12.21,1.55,3.81,5.75,2.74,8.99,2.54,7.86-.49,15.69-1.39,23.59-1.41,4.78-.02,9.48-1.07,13.92-2.99,10.77-3.79,22.15-5.56,32.61-10.56,8.38-4.01,16.5-8.37,24.56-12.98,13.67-7.83,26.61-16.52,37.87-27.58,8.23-6.44,16.11-13.31,24.24-19.86,12.21-9.84,28.4.61,29.41,14.95.59,8.34-.75,16.17-5.03,23.46-5.57,9.5-11.45,18.47-20.85,25.01-6.57,4.57-12,10.8-17.84,16.4-1.17,1.12-1.86,2.74-2.77,4.12-7.2,4.23-13.14,10.17-20.24,14.62-12.26,7.69-25.23,13.53-39.27,16.65-12.07,2.68-24.04,6.15-36.53,6.65-9.96,1.5-20,1.14-30.01,1.15-15.33.01-30.67.03-46-.02-2.86,0-5.72-.35-8.58-.44-14.54-.47-28.89-2.86-43.36-4.08-7.18-.61-13.86-3.46-19.8-7.62-11.14-7.81-22.11-15.87-33.28-23.64-9.39-6.53-18.71-13.26-28.55-19.06-9-5.3-18.66-9.49-28.03-14.17-3.36-2.89-7.81-3.35-11.71-4.95-10.09-4.14-20.58-7.21-31.3-8.84-5.55,10.46-11.78,19.8-19.11,28.28-5.65,6.55-10.75,13.48-15.33,20.72-8.78,13.87-19.76,25.84-31.67,36.85-11.38,10.52-23.38,20.42-35.79,29.76-18.14,13.65-36.23,27.35-55.58,39.33-6.22,3.85-12.75,7.37-18.1,11.99,1.72,14.82,6.42,29,.8,43.89,7.59,3.74,14.76,6.95,21.63,10.71,13.95,7.62,28.6,14.34,38.35,27.84,8.53-1.58,16.85-1.46,25.35,1.18,10.98,3.41,21.36,8.3,32.17,12.03,14.47,4.99,26.99,13.19,38.85,22.41,4.28,3.33,8.48,5.7,13.73,6.69,10.9,2.05,20.19,7.37,27.78,15.29,6.83,7.13,14.88,12.31,23.55,16.73,9.45,3.29,18.86,6.79,27.63,11.6,7.49,4.11,14.58,8.96,21.77,13.6,9.46,6.11,19.75,10.68,30.61,12.98,15.95,3.37,31.42,7.94,45.56,15.94,10.29,5.83,21.19,8.01,32.67,8.8,8.32.57,16.64,1.17,24.92,2.08,10.18,1.12,20.33,2.58,30.49,3.89Zm-956.02-502.77c5.85-4.18,12.15-7.45,18.73-10.44,15.19-6.9,30.78-13.21,44.49-22.91,12.32-8.71,25.84-15.12,39.12-22.04,22.71-11.83,46.67-21.11,69.02-33.68,5.62-3.16,10.96-6.84,16.7-9.76,9.56-4.87,17.84-11.04,23.75-20.18,3.63-5.63,7.6-11.04,11.36-16.59,3.69-5.45,5.98-5.74,10.65-1.31,5.75,5.46,10.14,12.08,15.34,18.01,3.65,4.17,5.6,4.83,10.53,2.52,4.12-1.94,8.31-3.6,12.68-4.94,15.07-4.63,30.09-9.46,45.11-14.26,13.22-4.22,26.7-7.36,40.37-9.6,12.47-2.05,24.98-3.91,37.55-5.31,10.68-1.19,21.32-2.56,32.03-3.49,11.62-1.02,23.36-2.05,34.26-6.93,11.16-4.99,12.98-20.17,3.29-27.61-5.78-4.44-12.18-7.43-19.33-9.07-10.12-2.33-20.41-2.22-30.67-2.74-18.03-.92-35.94.2-53.43,4.73-10.87,2.82-21.47,6.68-32.2,10.05-7.07,2.22-14.11,4.53-21.24,6.54-6.75,1.9-11.11-.93-12.75-7.8-1.01-4.25.14-8.06,2.23-11.68,1.85-3.23,3.79-6.4,6.03-10.17-8.09-1.82-15.09-4.12-21.82-7.15-9.48-4.28-17.67-9.73-23.1-19.34-4.19-7.42-5.94-15.57-9.32-23.19-3.63-8.16-7.56-15.53-15.87-20.34-11.71-6.78-17.67-17.81-19.08-31.18-.41-3.9-1.72-7.34-3.17-10.61-7.67-.95-14.01-4.14-17.67-10.29-5.13-8.63-8.95-17.98-9.43-28.3-.08-1.62.41-3.36-.84-4.95-4.68-1.44-8.1-4.71-10.88-8.71-5.27-7.6-8.59-16.12-9.71-25.19-.65-5.3-2.64-8.28-7.64-9.8-4.95-1.51-8.53-4.77-11.66-8.99-3.04-4.1-5.51-8.5-7.51-13.03-3.74-8.45-4.75-17.26-2.51-26.56,1.79-7.44,5.89-13.64,9.7-19.84,3.5-5.69,2.98-10.32-.22-15.26-3.26-5.05-7.72-6.35-14.52-4.74-1.4.33-2.81.6-4.18,1.02-6.2,1.94-12.66,5.07-16.17,9.75-6.45,8.61-13.68,16.6-19.98,25.31-9.23,12.77-20,24.36-28.24,37.91-6.21,10.21-15.55,18.03-22.13,28.09-10.46,15.99-24.34,29.51-33.63,46.41-3.68,6.69-7.59,13.37-12.27,19.37-12,15.4-19.96,33.21-30.18,49.66-6.81,10.96-12.25,22.75-19.4,33.56-12.61,19.05-19.15,39.96-18.73,62.93.24,13.11,4.26,24.86,12.33,35.21,4.11,5.28,7.98,10.77,12.34,15.84,6.07,7.08,12.15,14.25,19.47,20.05,3.67,2.9,6.57,6.21,9.13,9.95,2.17,3.15,4.13,6.45,6.26,9.63,15.16,22.65,20.12,47.65,17.41,74.51-.57,5.65-.22,11.4-.29,17.1-.39-.45-.79-.51-.98-.07-.09.22.14.57.23.86.22-.31.43-.62.65-.93Zm-75.91,358.22c-1.55-4.4-2.08-8.34-3.4-12.21-2.54-7.43-5.97-14.59-7.23-22.47-2.28-14.22-2.78-28.57-2.78-42.9,0-21.6,2.64-42.93,8.37-63.81,3.88-14.14,9.63-27.38,16.91-40.2,6.75-11.88,14.97-22.69,22.29-34.13,6.88-10.75,15.32-20.15,26.15-27.21,3.23-2.11,6.52-4.04,10.31-4.94,8.67-2.05,17.41-2.74,26.23-1.06,5.15.98,6.86,3.16,6.58,8.51-.1,1.89-.4,3.85-1.06,5.61-2.16,5.83-4.82,11.49-6.74,17.4-1.9,5.85-5.86,9.71-10.68,13-1.58,1.08-3.22,2.08-4.85,3.08-24.83,15.26-42.05,37.05-54.79,62.93-7.27,14.76-10.16,30.2-10.18,46.49-.01,11.76.77,23.43,1.87,35.12.41,4.33,1.28,8.44,2.58,12.57,3.62,11.53,10.17,21.52,15.93,31.97,7.03,12.78,13.91,25.56,23.79,36.46,3.21,3.54,5.9,7.52,9.8,10.43,9.96,7.41,20.33,14.31,29.34,22.95,1.34,1.29,3.24,2,4.89,2.97,15.91,9.39,32.93,16.58,49.39,24.88,11.97,6.04,23.96,12.16,36.38,17.17,18.18,7.34,36.77,13.64,55.14,20.51,10.69,4,21.85,4.42,32.48,5.42,7.43-9.47,10.54-19.46,9.22-30.74-.47-4.03-1.04-8.06-1.22-12.11-.24-5.51-.12-11.03-.22-16.54-.07-3.62,1.8-5.95,5-7.02,3.02-1,4.84.89,6.32,3.36.97,1.63,2.34,3.03,3.48,4.57,10.94,14.68,16.97,30.92,15.83,49.49-.21,3.35.16,6.73-.07,10.07-.57,8.35,4.07,13.83,10.66,17.21,17.09,8.77,35.33,14.48,54.04,18.73,12.32,2.8,24.57,5.94,36.94,8.5,7.13,1.47,14.28,3.45,22.15,3.1.06-5.17.32-9.91,1.47-14.52,1.81-7.2,5.52-12.13,13.3-14.34,11.58-3.29,22.49-1.27,32.85,3.31,12,5.3,24.39,5.44,36.66,3.64,17.22-2.53,34.07-7.31,51.46-9.11,6.24-.65,12.67-1.74,18.6-.43,8.39,1.85,14.52,6.5,12.59,15.77-.93,4.46-3.48,7.76-7.37,10.13-5.89,3.59-12.51,5.1-19.15,5.18-9.07.12-17.37,3.17-25.93,5.27-2.76.68-5.15,2.5-7.38,4.35-2.65,2.2-2.98,4.62-.74,7.9,6.07-.51,12.44,1.63,18.27-1.3,7.51-3.77,15.49-6.34,23.08-9.87,7.74-3.6,15.86-5.14,24.42-4.66,5.49.3,9.26,2.39,12.04,7.45,2.26,4.12,2.76,8.5,3.68,12.8,10.21,2.04,20.32,1.74,30.26,3.12,4.62.64,8.52,1.47,8.37,7.01,3.56.58,6.56,1.24,9.71,1.4,14.63.74,29.26.21,43.89.35,10.29.1,20.57,2.06,30.84.92,13.4-1.49,26.81-.65,40.21-.88,14.15-.25,28.32.15,42.44-.6,17.19-.91,34.36-2.28,51.59-2.34,3.09-.01,6.21-.43,9.27-.93,14.84-2.4,29.73-4.43,44.5-7.33,10.06-1.97,20.18-3.53,30.11-6.22,3.55-.96,6.28-3.39,9.85-4.18,10.51-2.35,20.8-5.53,30.73-9.7,6.06-2.55,12.38-4.85,17.25-9.86-4.47-5.52-10.09-8.55-16.43-10.33-18.07-5.06-36.63-4.59-54.99-3.43-14.48.91-28.89,3.58-43.3,5.68-20.59,3-41.15,6.22-61.13,11.88-14.93,4.23-29.74,8.95-44.79,12.82-10.21,2.62-19.89.42-28.35-4.68-9.51-5.75-10.09-14.13-.05-19.19,3.85-1.94,7.71-3.82,11.78-5.32,15.18-5.58,31.29-6.53,46.98-9.53,11.94-2.28,24.17-3.02,36.26-4.49,7.93-.96,11.12-3.7,12.23-10.75-5.62-3.72-11.98-5.35-18.79-5.58-8.66-.3-17.07.55-25.55,2.89-20.51,5.65-41.37,10.07-61.8,15.96-12.2,3.51-24.48,6.54-36.87,9.19-7.88,1.69-15.77,1.42-23.14-2.33-8.23-4.19-8.93-14.78-2-20.89,8.05-7.09,17.78-8.93,27.77-9.9,5.69-.55,11.41-.77,17.12-1.35,14.97-1.52,28.93-6.23,42.72-11.76,2.47-.99,5.34-1.92,5.14-5.19-.18-2.98-1.76-5.33-4.87-6.49-11.9-4.42-23.98-6.38-36.55-3.19-14.19,3.6-27.56,9.52-41.23,14.53-16.88,6.19-33.99,11.41-51.79,14.18-5.25.82-10.56.79-15.8.42-5.8-.41-10.94-3.01-13.13-8.6-2.19-5.57-.45-10.82,3.87-15.1,1.71-1.7,3.53-3.06,5.78-4.1,6.22-2.86,12.66-4.03,19.49-4.23,8.57-.24,17.18-.56,25.47-3.35,9.07-3.05,18.22-5.84,27.29-8.85,5.89-1.96,11.73-4.05,17.18-7.13,1.61-.91,2.91-1.82,2.53-3.8-.31-1.62-1.72-2.22-3.17-2.52-2.34-.48-4.69-1.02-7.06-1.2-3.82-.28-7.61-.84-11.42-1.16-15.06-1.28-30.18-1.88-45.07,1.41-9.8,2.16-19.51,4.76-29.17,7.45-13.43,3.74-26.79,4.78-40.26.32-5.89-1.95-9.49-6.29-10.09-11.96-.59-5.55,1.57-11.13,6.35-14.54,8.14-5.8,17.16-9.16,27.48-8.92,13.43.31,26.87.11,40.31.04,1.79,0,3.81.65,5.58-1.15-1.61-7.11-6.94-10.79-13.03-13.08-13.92-5.22-27.96-5-42.18-.43-13.13,4.22-24.81,11.77-38.73,14.49-13.28,2.6-26.02,2.86-39.05.09-3.93-.84-6.1-3.19-7.04-7.15-1.1-4.62.17-8.46,2.79-12.13,5.82-8.14,5.75-8.15-3.88-11.87-4.02-1.55-7.88-3.45-11.18-6.38-1.89-1.68-2.85-3.39-3.1-6.05-.82-8.77,2.8-15.35,9.36-20.62,2.93-2.36,5.99-4.51,6.66-8.63-2.74-1.13-5.2-1.93-7.9-2.01-12.47-.37-24.85.83-37.24,2.03-5.33.52-10,3.18-15.28,3.74-8.25.89-16.43-4.38-17.93-11.26-1.22-5.59.64-14.17,9.49-18.3,3.69-1.72,7.45-3.3,11.23-4.81,10.43-4.16,21.41-4.65,32.45-4.9,7.71-.18,15.07-1.84,22.11-5.46,0-2.25.39-4.25-.08-6.03-1.11-4.25-2.85-8.88-7.5-9.72-5.82-1.05-12.08-1.6-17.79.57-11.41,4.34-23.18,5.53-35.23,5.22-1.97-.05-3.77-.43-5.5-1.38-3.61-1.99-4.48-3.73-3.17-7.57,2.03-5.98,5.04-10.98,10.75-14.65,4.79-3.08,9.62-6.6,13.58-11.2-8.72-4.48-25.61-5.64-34.04-2.34-5.79,2.27-11.39,5.03-17.18,7.29-3.66,1.43-7.28,1.76-10.82-1.06-9.72-7.76-8.12-24.47,2.46-29.82,8.26-4.18,16.58-7.39,25.96-7.39,1.1,0,3,1.02,3.33-1.82-18.12-6.27-22.13-20.47-20.23-38-7.87-3.25-10.94-11.03-16.09-17.32-6.93,3.3-12.81,7.9-17.69,13.42-6.01,6.79-11.56,14.06-16.67,21.55-5.41,7.95-9.58,16.5-9.61,26.6-.01,6.44-.74,12.88-1.31,19.3-1.24,13.95,2.11,26.56,10.67,37.73,1.02,1.33,2.19,2.67,2.75,4.2,2.63,7.23,8.42,11.45,14.4,15.47,2.57,1.73,5.32,3.2,7.98,4.81,2.67,1.62,3.42,3.55,1.73,6.57-4.4,7.84-10.84,13.65-18.88,17.02-17.2,7.21-34.93,11.73-53.86,7.48-4.61-1.03-8.26-2.36-8.72-7.61,1.33-3.58,5.43-3.08,7.45-5.36,2.15-2.43,4.6-4.83,4.92-8.49-18.88-12.86-29.27-30.05-28.47-53.22.26-7.46,2.09-14.15,8.23-18.99,2.07-1.63,2.94-3.68,2.68-6.15-.47-1.41-1.75-1.69-2.69-2.38-6.44-4.81-10.34-15.94-4.17-24.98,4.16-6.1,9.91-10.19,16.12-15.37-2.36-2.06-4.69-3.74-6.59-5.82-4.26-4.67-5.63-10.86-3.24-16.1,3.08-6.74,8.73-12.02,16.39-13.98,13.46-3.44,26.57-7.98,39.44-13.12,7.72-3.08,14.65-7.7,18.68-16.04-9.89-5.09-15.8-12.06-16.38-23.54-.62-12.36,8.8-17.01,16.1-23.5-1.88-4.08-5.26-5.91-8.75-7.37-7.72-3.24-15.79-3.51-23.98-2.28-11.68,1.76-18.26,9.67-23.24,19.4-4.48,8.75-8.91,17.52-13.12,26.39-1.54,3.25-3.67,5.85-6.95,6.82-8.86,2.6-19.33,1.71-24.71-8.66-3.77-7.27-3.84-14.84-2.1-22.36,2.85-12.33,9.88-22.74,16.62-33.2,2.61-4.05,6.32-6.9,10.49-9.47,11.48-7.07,23.7-11.13,37.25-11.17,3.01,0,5.64-.6,8.3-3.08,4.58-4.27,10.56-5.44,16.68-2.92,2.87,1.18,5.58,2.75,8.38,4.12,5.69,2.79,7.68,2.15,11.09-3.5,2.8-4.65,2.1-7.59-2.68-10.79-9.46-6.35-19.74-5.79-29.67-2.17-9.92,3.61-19.99,6.56-30.09,9.5-5.49,1.6-10.66,4.31-16.5,4.7-7.5.5-14.41,3.36-21.53,5.39-2.99.85-5.85,2.15-8.84,2.95-14.82,3.96-29.01,9.71-43.39,14.94-13.24,4.82-26.4,9.8-39.33,15.38-3.63,1.56-6.23-.78-5.33-4.66.79-3.4,3.12-6,5.63-8.16,9.48-8.13,20.15-14.51,31.05-20.52,5.86-3.23,11.47-6.8,16.93-10.66,2.24-1.59,3.92-3.3,3.58-6.84-5.43,0-10.68,0-15.93,0-6-.01-12,.07-17.99-.11-2.4-.07-4.99-.69-5.79-3.42-.88-2.98,1.4-4.22,3.59-5.39,8.2-4.4,16.28-9.06,24.6-13.22,15.52-7.76,29.7-17.99,46.01-24.34,9.53-3.71,18.47-8.86,28.1-12.5,11.18-4.23,22.14-9.07,33.32-13.26,17.67-6.62,35.78-12.04,53.72-17.95,7.83-2.58,9.66-5.38,7.85-13.19-.91-3.9-3.91-6.45-7.17-8.54-2.66-1.7-5.67-2.49-8.76-3.06-17.05-3.18-33.22.66-49.2,6.05-10.87,3.66-21.58,7.85-32.58,11.08-14.45,4.23-28.43,9.7-42.46,15.03-5.15,1.96-10.28,3.86-15.54,5.49-12.87,4-24.9,10.11-36.09,17.35-13.31,8.62-27.32,15.71-41.65,22.25-11.75,5.36-23.65,10.33-34.93,16.67-14.79,8.32-28.89,17.85-44.22,25.23-7.79,3.75-14.88,8.6-21.59,14.08-9.64,7.87-19.76,15.12-30.18,21.92-7.2,4.7-15.03,8.52-21.85,13.7-15.47,11.75-32.25,21.52-48.74,31.57-13.95,8.5-27.99,17.43-43.97,22.35-7.51,2.31-14.85,5.35-21.89,8.98-1.45.75-3.18.98-4.79,1.39-17.55,4.46-35.12,8.87-52.66,13.42-2.79.73-5.62.97-8.4,1.48-8.68,1.56-17.55,1.57-26.16,3.99-9.14,2.57-18.54,4.79-27.96,5.65-9.3.84-18.52,1.62-27.56,3.98-3.7.97-7.31,2.28-11,3.31-21.94,6.15-43.27,13.85-63.36,24.75-6.29,3.41-9.15,2.76-13.39-3.06-.83-1.14-1.3-2.53-2.02-3.76-4.46-7.63-8.46-15.61-16.6-20.27-1.63-.93-3.06-2.33-4.33-3.74-4.55-5.02-10.29-7.87-16.83-8.9-13.18-2.07-26.02-2.4-38.29,4.79-7.05,4.13-13.48,9.07-20.33,13.4-12.36,7.8-21.51,18.68-30.52,29.84-10.29,12.75-18.42,26.87-25.75,41.4-5.05,10-10.37,19.98-12.9,31.11-1.58,6.98-3.05,14.12-5.78,20.69-7.18,17.27-8.3,35.27-7.8,53.57.22,8.04,1.42,9.12,9.25,9.06,1.91-.01,4.02.29,5.7-.39,11.59-4.75,23.34-9.95,31.27-19.79,9.52-11.8,16.44-25.28,17.55-40.99.4-5.73,1.32-11.41,3.06-16.91.97-3.08,3.51-4.54,6.43-5.11,2.11-.41,3.58.94,4.58,2.76,4.7,8.52,12.54,12.96,21.29,16.07,6.5,2.31,12.81,5.15,19.94,5.48,3.78.18,6.17,3.67,4.5,6.44-3.03,5.05-4.73,10.96-9.93,14.72-7.55,5.47-15.15,11-21.4,17.99-6.84,7.65-11.43,16.47-11.73,27.02-.09,3.19.34,6.29,3.79,8.13,5.52-2.57,11.14-5.21,16.79-7.79,5.63-2.57,11.13-5.56,16.98-7.5,11.77-3.91,23.87-6.74,35.56-11.01,17.27-6.31,35.17-10.48,52.85-15.42,12.93-3.61,26.14-2.3,39.17-3.8,15.04-1.74,30.19-.25,45.28.06,6.85.14,13.77,1.11,20.65,2.02,9.28,1.22,18.24,3.81,27.45,5.21,8.96,1.36,17.95,2.72,26.81,4.47,12.36,2.46,24.6,5.88,36.6,9.78,23.41,7.62,47,14.56,70.6,21.55,4.98,1.47,9.78,1.46,15.51-.46Zm720.3-498.57c9.13,2.37,18.37,1.72,27.23,3.73,9.34,2.12,19,1.25,28.37,3.91,13.6,3.86,27.79,4.93,41.84,5.54,12.15.53,24.37.3,36.61-.49,11.3-.72,20.5-4.51,29.66-10.93,10.2-7.15,21.79-8.74,34.12-4.07,9.9,3.75,12.14,11.12,8.22,20.07-2.11,4.83-2.87,9.5-2.75,14.59.14,5.99.03,11.99.03,17.99,0,2.4-.13,4.73-.78,7.11-.63,2.32-1.72,3.97-4.02,4.58-5.54,1.46-11.02,3.13-16.88,3.14-4.9,0-8.09-1.68-9.89-6.52-2.06-5.56-4.38-11.07-7.74-15.92-.76.15-1.28.12-1.67.34-16.35,9.21-33.75,15.75-51.85,20.52-8.79,2.32-17.51,4.91-26.37,6.87-4.22.94-6.05,3.24-6.87,7.1-.85,3.99-2.23,7.8-4.24,11.38-3.27,5.82-6.81,11.53-9.62,17.57-8.48,18.21-27.24,24.48-45.13,15.95-3.46-1.65-6.73-3.67-10.15-5.41-7.75-3.95-17.33-1.09-21.39,6.51-4.17,7.79-6.47,16.16-4.87,24.95,1.39,7.64,1.38,15.28,1.13,22.92-.45,13.86-4.21,26.92-11.27,38.85-5.21,8.8-13.92,8.48-19.08-.39-.96-1.65-2.11-3.33-2.53-5.15-2.1-9.15-6.85-17.73-5.88-27.56.18-1.86.4-3.84-.67-6.02-4.13-.75-5.39-3.44-4.73-7.76.46-3.04.23-6.24-.11-9.32-.39-3.51-2.65-3.9-6.05-2.88,0,12.03-.18,23.76.08,35.47.13,5.69-.91,10.95-3.6,15.88-1.51,2.78-2.25,5.44-2,8.79.38,5.12-.95,10.11-5.65,13.23-2.34,1.55-2.91,3.57-2.79,6.13.1,2.15.17,4.34-.08,6.47-.88,7.43-3.97,10.04-11.35,9.8-12.09-.4-13.03-2.12-9.9-13.84,3.26-12.2,4.46-24.45-4.01-35.47-.25-.32-.15-.91-.24-1.61,4.13-5.36,3.05-11.81,2.24-17.83-.71-5.27-3.86-9.77-8.59-12.77-4.32-2.74-8.94-2.79-11.99-.16-2.87,2.47-4.36,8.81-2.38,12.54,8.13,15.29,9.98,31.9,9.75,48.72-.27,19.23-3.71,38.1-10.15,56.22-3.3,9.28-8.91,17.5-15.96,24.55-3.24,3.24-5.87,3.21-9.38.27-1.7-1.42-2.75-3.27-3.75-5.2-3.92-7.57-4.81-15.97-6.52-24.1-1.78-8.48-1.09-17.18-1.05-25.79.03-6.4-1.51-12.36-4.73-17.83-2.49-4.22-7-5.03-11.23-5.05-4-.02-5.05,3.76-6.21,6.98-1.15,3.21-1.48,6.49-1.45,9.88.07,8.4.78,16.89-.21,25.17-1.62,13.58-2.48,27.14-2.19,40.8.18,8.32,2.07,16.65-.43,24.94-.55,1.81-.7,3.75-.99,5.64-.5,3.36.31,6.08,3.55,7.83,1.67.9,3.14,2.18,4.76,3.19,7.94,4.98,14.82,11.19,21.13,18.09,5.8,6.34,11.53,12.77,17.63,18.81,3.95,3.92,4.53,3.6,9.38.89,9.6-5.36,18.11-12.33,27.34-18.24,12.47-7.99,23.73-17.56,35.01-27.15,11.45-9.74,23.68-18.54,34.62-28.93,7.11-6.75,13.89-13.73,20.02-21.41,5.07-6.35,10.28-12.61,16.26-18.19,9.31-8.68,17.6-18.22,23.96-29.35,2.36-4.13,4.66-8.38,7.64-12.04,9.52-11.7,17.76-24.29,25.46-37.18,8.07-13.52,19.01-23.86,31.92-32.4,14.54-9.63,30.4-17.34,43-29.78.49-.49,1.21-.75,1.83-1.1,7.11-4.06,8.02-8.71,3.04-15.51-1.25-.35-2.29.21-3.43.61-5.62,1.98-7.9.38-8.22-5.61-.58-11.15,4.43-18.2,15.11-21.26,1.61-.46,3.26-.78,4.84-1.33,18.06-6.34,36.24-12.08,55.55-13.4,5.92-.4,11.79-1.95,16.97-5.25,8.7-5.55,13.79-14.11,17.24-23.23,7.03-18.57,6.65-38.07,4.56-57.44-1.06-9.8-4.08-12.14-13.83-13.08-8.84-.85-17.76-.95-26.56.27-9.98,1.38-20,2.05-30.02,2.15-23.96.23-47.91.16-71.86,1.4-20.63,1.07-40.6,6.43-61.05,8.51-9.73.99-18.93,5.25-28.94,4.84-1.55-.06-3.4.06-4.8,2.26Zm-37.1-713.87c-1.28-.13-2.09.84-2.99,1.52-14.26,10.9-28.66,21.62-42.71,32.78-26.79,21.26-54.5,41.35-80.81,63.21-5.04,4.18-10.73,5.98-17.32,5.36-6.5-.61-8.84-2.5-8.59-8.92.37-9.6,4.32-17.44,12.65-22.77,2.81-1.8,5.56-3.72,8.17-5.79,12.94-10.26,25.79-20.62,38.73-30.87,22.69-17.97,45.43-35.89,68.16-53.82,19.16-15.11,38.35-30.18,57.49-45.31,15.21-12.02,30.38-24.08,45.55-36.14,1.62-1.29,3.74-2.37,2.96-5.09-8.29-1.02-9.53-.65-16.01,2.12-10.9,4.65-20.19,11.9-29.96,18.34-6.58,4.34-13.55,8.16-19.54,13.36-8.12,7.05-16.89,13.2-25.89,19.06-14.18,9.23-29.18,17.06-42.76,27.38-8.06,6.13-17.16,11.22-25.6,16.95-11.59,7.87-23.88,14.61-35.21,22.86-12.55,9.15-26.21,16.64-38.7,25.92-10.93,8.12-21.99,16.08-32.92,24.21-13.67,10.16-26.18,21.63-38.9,32.88-2.61,2.31-3.73,4.78-3.13,8.19.29,1.64.17,3.35.37,5.01,2.11,16.84-.79,32.75-8.53,47.85-2.62,5.11-4.98,10.36-7.38,15.58-5.68,12.38-12.13,24.38-20.77,35.04-1.21,1.49-2.69,2.85-2.62,4.96.2,5.88-2.19,11.25-3.5,16.78-3.31,13.91-7.21,27.68-11.19,41.42-2.8,9.65-6.3,19.06-11.65,27.67-5.05,8.13-10.35,16.08-16.42,23.48-3.7,4.52-6.28,9.12-6.01,15.49.27,6.14-.07,12.42-1.45,18.56-2.26,10.08-3.06,20.32-2.67,30.65.39,10.32-.68,20.59-1.9,30.78-1.55,12.96-.91,25.21,6.67,36.36.4.59.65,1.28.96,1.93,6.26,12.95,12.77,25.66,24.33,34.98,4.65,3.75,9.05,7.87,13.11,12.26,10.42,11.27,24.03,18.76,34.71,29.69.49.5,1.23.74,1.81,1.16,9.75,6.94,19.12,14.23,27.18,23.26,5.86,6.57,12.25,13.15,19.65,17.74,12.62,7.83,20.88,19.42,30.02,30.4,3.58,4.3,5.83,9.73,10.9,13.32,8.79-15.76,20.73-28.3,34.3-39.34.84-4.53-1.25-6.87-5.5-7.56-4.71-.76-9.42-1.67-14.17-2.11-7.22-.66-12.75-3.84-16.38-10.11-3.59-6.19-5.16-12.78-3.91-19.98,1.31-7.51-.01-10.88-4.92-13.51-5.25-2.81-9.23-2.02-14.9,2.85-1.63,1.4-3.25,2.93-5.12,3.93-11.43,6.11-22.58-.28-23.47-10.75-.08-.92-.36-1.82-.47-2.35-1.37-1.12-2.61-.87-3.78-1.02-8-1-12.27-5.25-12.46-13.1-.11-4.38,1.39-8.78,4.59-11.7,3.08-2.81,3.19-6.3,3.7-9.65.63-4.17-1.98-6.29-6.11-5.55-2.38.43-4.59,1.19-6.03,3.45-1.15,1.81-2.62,3.42-3.89,5.16-4.43,6.03-10.65,6.98-17.57,3.36-6.68-3.49-8.07-10.46-4.85-16.53,1.89-3.56,4.54-6.73,6.99-9.96,4.28-5.63,10.63-7.88,16.95-10.22,4.88-1.81,9.28-8.55,7.72-11.4-1.74-3.19-7.63-3.8-13.16-1.37-3.07,1.35-6.1,2.83-9.25,3.96-3.05,1.09-6.34,1.32-8.67-1.41-2.51-2.94-4.42-6.21-2.97-10.48,1.13-3.32,3.04-5.94,5.79-8.01,1.72-1.29,3.46-2.56,5.22-3.79,3.82-2.67,5.13-6.13,3.5-10.54-9.05-3.08-13.21-2.04-17.63,5.35-5.66,9.46-18.56,10.38-25.5,7.73-3.76-1.43-6.87-4.13-6.51-8.53.52-6.25,1.63-12.44,8.28-15.65,2.1-1.01,3.99-2.46,6.28-3.9-2.39-.66-4.37-1.54-6.41-1.69-5.06-.37-6.9-3.96-8.15-7.92-2.43-7.67,2.07-19,8.98-23.26,4.93-3.04,10.28-5.25,15.83-6.65,8.14-2.05,14.34-6.3,18.27-13.75,1.82-3.45,5.61-5.94,5.51-10.22-2.1-2.11-4.56-2.44-6.74-3.38-12.32-5.3-19.5-21.85-4.31-33.34,7.02-5.31,14.66-9.89,23.35-12.31,7.44-2.07,14.07-5.32,19.73-11,7.67-7.69,13.97-16.34,19.79-25.37,2-3.11,3.34-6.73,2.34-10.69-2.17.07-3.25,1.46-4.59,2.43-8.53,6.21-17.4,11.86-26.99,16.35-3.47,1.62-6.95,1.9-10.5,1.29-4.44-.76-6.13-3.74-5.41-8.32.72-4.59,2.12-9.11,4.93-12.61,5.35-6.67,10.32-13.53,16.84-19.44,11.5-10.42,24.03-18.84,37.69-25.94,5.93-3.08,11.53-6.86,16.66-11.22,2.48-2.11,4.36-4.8,2.93-8.2-1.45-3.44-4.38-3.76-7.83-3.21-3.05.49-6.24.56-9.31.28-6.76-.62-10.65-7.6-6.84-13.05,3.12-4.48,5.66-9.5,9.88-13.18,11.04-9.63,23-18.33,35.95-24.78,20.36-10.15,39.94-21.54,59.3-33.36,11.41-6.97,22.5-14.49,33.48-22.12,7.85-5.46,16.14-10.39,23.13-17.02,12.32-11.68,15.48-27.58,19.5-43.05.24-.91-.4-1.84-1.4-2.37Zm-262.61,142.48c-60.28,53.2-119.48,105.94-178.64,158.27,1.04,11.44,4.26,21.99,5.97,32.85,2.93,18.63,4.16,36.93-1.63,55.34-2.69,8.56-.6,17.18,4.04,24.85,1.35,2.24,2.87,5.01,6.52,4.71,3.54-.29,4.34,2.25,4.53,5.13.2,3.08-.08,6.12.9,9.23,3.2,10.1,7.53,19.68,13.5,28.38,2.51,3.67,4.32,8.21,8.64,10.36,3.72,1.85,4.26,4.51,4.57,8.6,1.08,14.22,4.92,27.43,18.69,35.03,2.86,1.58,4.55,3.35,3.44,6.85-.25.8.03,1.94.43,2.74,4.41,8.75,7.28,18.25,12.95,26.41,4.19,6.04,10.13,9.9,16.82,13.76-2.14,5.52.23,10.06,3.34,14.06,10.03,12.88,21.96,23.3,38.21,27.62,1.7.45,3.28.93,4.01,2.64,1.76,4.12,5.62,5.65,9.12,7.72,7.29,4.3,15.34,6.56,23.27,9.22,16.57,5.57,33.03,3.94,49.28-.97,10.29-3.11,13.99-16.17,6.99-23.83-4.8-5.24-9.92-10.2-16.61-13.25-5.42-2.47-10.62-5.42-15.92-8.16-9.35-4.84-18.33-10.64-28.13-14.27-12.01-4.45-19.95-11.87-23.43-24.03-.91-3.17-2.76-4.68-5.75-5.68-9.89-3.3-15.13-10.18-15.92-20.71-.56-7.5-4.23-11.13-11.62-12.27-10.45-1.61-13.03-3.42-15.59-16.27-.45-2.28.15-4.85-2.31-6.76-.96.49-1.98,1.02-3.01,1.53-4.2,2.09-8.57,2.17-12.26-.58-3.81-2.83-3.04-6.82-1.97-11.11,1.25-5,2.97-10.19,1.17-15.7-.87-.19-1.79-.42-2.71-.59-11.26-2.12-14.48-9.75-7.15-18.41,3.04-3.6,4.95-8.15,7.38-12.27,2.15-3.65,2.88-7.46,1.36-11.84-2.2.73-4.18,1.6-6.25,2.02-3.43.69-8.97-2.31-10.25-5.3-1.36-3.18-.03-5.6,4.28-8.65,2.51-1.78,5.48-2.88,7.48-5.47,9.11-11.79,14.13-25.17,16.21-39.95-2.16-.7-3.69.2-5.07.91-3.37,1.75-6.94,1.6-10.54,1.57-2.63-.02-4.89-.71-5.42-3.61-.48-2.62-.62-5.39,1.9-7.22,1.34-.97,2.92-1.63,4.41-2.4,15.51-8.03,29.41-17.8,38.29-33.52,2.29-4.05,3.97-8.04,4.88-12.59.7-3.5.09-5.99-2.62-7.92-2.65.6-4.77,1.69-6.85,2.92-9.32,5.5-19.31,9.56-29.42,13.33-2.23.83-4.55,1.55-6.89,1.95-3.41.58-6.29-.6-7.71-3.88-1.28-2.96-.29-5.55,2.06-7.76,1.96-1.83,4.22-3.08,6.62-4.22,8.22-3.9,16.5-7.71,24.52-11.98,7.69-4.1,14.11-9.75,18.18-17.69,2.76-5.4,1.93-7.73-4.13-11.15-3.14,2.92-4.94,6.91-7.83,10.12-7.5,8.31-16.92,14-26.05,20.06-6.18,4.1-13.16,6.86-20.12,9.42-6.47,2.38-9.39,0-9.68-6.89-.17-4.06,1.12-7.58,3.24-10.83,3.4-5.2,6.84-10.4,10.53-15.39,5.54-7.49,10.43-15.58,17.69-21.6,16.41-13.59,33.88-25.75,51.66-37.44,14.04-9.24,27.45-19.18,38.43-32,5.27-6.15,9.06-13.03,5.92-23.45Zm362.88,613.52c-11.49-1.81-22.32-3.65-33.26-4.66-9.52-.87-19.08-.88-28.59-1.99-8.23-.96-16.57-1.23-24.87-1.27-4.32-.03-8.86,1.15-11.27,5.2-2.92,4.92-5.55,10.05-6.59,15.83-.76,4.23-1.56,8.49-2.9,12.56-1.33,4.04-2.97,8.16-6.7,10.73-4.73,3.26-9.64,6.14-15.37,7.54-8.11,1.98-16.19,4.15-24.18,6.55-7.97,2.39-15.02,6.43-19.2,13.97-2.34,4.23-3.91,8.86.37,12.9,9.8-.41,18.15-4.16,25.35-9.81,11.39-8.94,23.81-15.84,37.13-21.29,17.02-6.97,34.01-14.03,51.06-20.94,13.72-5.56,26.97-12.24,41.11-16.85,6.23-2.03,11.95-5.6,17.9-8.48Zm-112.37-77.75c2.75-7.19,2.84-9.11.15-15.34-3.61-8.38-10.22-14.89-14.52-22.85-.41-.77-1.44-1.24-2.23-1.76-10.52-6.92-21.86-10.82-34.56-8.28-5.35,1.07-10.61,2.83-15.76,4.68-7.13,2.56-9.29,6.34-9.87,14.07-.5,6.71,1.7,12.61,3.79,18.75,2.17,6.34,5.98,10.08,12.55,11.25,3.06.54,6.08,1.07,9.22,1.05,13.88-.08,27.77-.07,41.66,0,3.15.02,6.2-.25,9.57-1.55Zm117.31-31.13c-8.47-6.21-17.03-11.93-24.95-18.44-7.27-5.98-15.8-8.74-24.41-11.64-3.45-1.16-6.02-.4-8.09,2.58-3.48,5.01-6.09,10.41-5.94,16.59.36,14.56,5.8,30.75,22.38,37.7,5.73,2.4,11.73,4.47,17.94,1.28,9-4.63,15.95-11.27,20.02-20.69.95-2.2,1.82-4.42,3.04-7.39Zm-317.68,296.88c1.07-1.38,1.67-1.85,1.88-2.45,3.98-11.83,9.76-22.74,16.24-33.39,4.9-8.07,12.15-11.83,20.82-13.81,3.25-.74,6.59-1.18,9.74-2.22,4.91-1.61,6.06-3.5,5.97-8.47-.09-4.92-2.06-7.69-6.62-9.03-17.34-5.12-30.7,1.75-39.7,16.09-2.25,3.59-3.53,7.82-5.03,11.84-4.95,13.22-4.3,26.85-3.29,41.45Zm45.69-123.62c-1.62-1.66-3.25-1.9-4.94-2.02-11.23-.74-22.46-.61-33.7-.4-8.74.16-16.99,2.07-24.32,7.24-7.5,5.29-10.79,14.56-7.83,23.17,6.33,1.08,10.26-3.16,14.01-7,4.52-4.63,9.9-7.19,15.93-9.04,9.81-3.01,19.85-2.3,29.85-2.4,7.54-.07,9.02-1.36,11-9.55Zm87.84-58.19c-5.78,1.9-10.55,4.54-13.85,9.19-3.58,5.05-7.18,10.11-10.29,15.46-3.33,5.71-7.64,10.25-13.09,13.93-1.55,1.05-4.13,1.38-4.42,4.06,8.16,1.09,8.24,1.24,19.25-4.24,10.92-5.43,19.71-13.34,25.76-24.03,3.27-5.78,2.36-9.43-3.36-14.37Zm-77.58-19.77c-5.36-4.27-5.35-4.33-11.06-4.78-3.78-.29-7.9.51-11.3-.73-8.18-2.99-16.56-1.54-24.83-2.22-1.31-.11-2.79.65-4.05,1.28-2.63,1.3-3.68,3.74-3.71,6.48-.03,2.57,2.1,3.55,4.1,4.46,3.52,1.6,7.29,2.44,11.05,2.94,11.44,1.51,22.89,2.14,33.94-2.27,2.35-.94,5.23-1.45,5.86-5.15Zm303.72-130.58c.99,6.83,4.06,12.34,7.21,18.5,14.34-7.1,27.78-15.62,45.05-15.06-10.74-6.2-39.34-7.99-52.26-3.44Zm-227.15,111.69c10.06,7.08,20.94,7.01,31.97,3.91,4.55-1.28,7.44-5.58,6.49-8.29-1.35-3.83-5.04-4.72-8.48-5.61-1.09-.28-2.41-.2-3.49.15-5.96,1.91-12.05,2.43-18.28,2.56-3.88.08-7.69,1.18-8.2,7.27Zm-244.73,107.12c13.6,5.61,36.9-6.55,37.85-19.49-1.73-1.85-3.79-1.54-5.94-.93-9.46,2.7-18.04,7.34-26.62,12-3.17,1.72-5.03,4.27-5.29,8.42Zm626.94-100.7c-4.47,8.93-6.28,18.02-9.99,25.97,2.16,2.67,4.5,1.84,6.52,2.17,6.33,1.02,10.48-1.02,13.51-6.46,2.84-5.11,2.43-10.58,1.58-16.02-.41-2.62-2.57-4.04-4.89-4.74-2-.6-4.18-.6-6.74-.92Zm-1.8-27.35c4.89-3.13,9.04-4.79,11.81-8.62,4.77-6.57,2.47-14.91-5.24-17.26-5.51-1.68-11.21-1.63-17.3,1.02,5.73,7.11,9.94,14.66,10.73,24.86Zm-491.41,92c.27-2.26-1.06-3.61-3.03-4.92-5.41-3.57-11.31-4.88-17.66-4.41-4.47.33-5.85,2.69-4.08,6.65,2.63,5.9,11.19,10.78,17.53,9.99,5.06-.63,7.31-2.83,7.25-7.32Zm575.05-87.87c-1.98-.53-3.06.14-3.84.96-5.48,5.73-9.26,12.51-11.99,19.91-.6,1.63-.98,3.23.64,4.53,1.88,1.5,3.48.55,5.17-.52,7-4.42,11.69-15.95,10.03-24.88Zm-4.27-22.83c-.41-8.81-11.08-15.3-23.15-13.1-.24,4.89.17,7.19,2.9,8.75,6.23,3.58,12.77,6.33,20.25,4.35Zm-683.55-449.73c-6.59.66-10.49,4.21-12.43,9.85-1.39,4.02,1.64,7.7,5.39,6.97,8.92-1.74,11.85-8.34,7.04-16.82Zm743.88,473.57q8.12-4.59,10.68-9.04c4.07-7.09,2.45-9.96-6.57-10.9.2,6.74-3.32,12.68-4.11,19.94Zm-.13-47.24c-8.48-3.34-16.37-1.42-26-2.02,3.17,3.55,3.87,6.63,6.84,8.37,6.14-1.92,13.31-.48,19.16-6.35Z"></path>
    <path class="cls-5" d="m1641.5,403.36c5.12-11.76,8.44-24.25,14.17-35.75,5.54-11.11,10.44-22.45,13.72-34.44.53-1.93,1.25-3.65,3.21-4.42,7.32-2.92,13.1-8.53,20.34-11.58,4.25,1.12,7.68,3.81,11.38,5.97,93.75,54.81,177.63,122,251.82,201.25,72.85,77.82,133.32,164.36,181.52,259.45,1.35,2.66,1.9,6.18,5.94,6.41-9.68,2.48-19.56,3.32-29.48,4.11-13.44,1.08-26.04,6-39.07,8.94-12.16,2.74-23.75,7.07-35.2,11.87.65-2.63-1.07-4.5-2.09-6.6-5.2-10.68-12.01-20.49-16.78-31.4,2.14-3.01,5.78-3.2,8.78-4.39,10.86-4.29,21.88-8.19,32.81-12.32,1.38-.52,2.74-.71,4.17-.87,1.16-.13,2.4-.35,3.39-.91,4.92-2.78,9.3-13.97,7.78-20.58-6.4-.49-13.01-1.51-19.61-1.42-20.16.26-40.14-.91-59.8-5.67-3.89-.94-8.06.75-11.84-1.25.99-.43,2.46.06,2.96-1.88-1.29-1.98-2.69-4.19-4.15-6.36-22.83-34.1-47.67-66.67-74.48-97.74-75.05-87.02-162.29-159.34-261.68-217.01-2.47-1.43-4.78-3.27-7.81-3.4Z"></path>
    <path class="cls-5" d="m2100.05,948.41c8.72-5.38,18.29-8.99,27.61-13.09,18.35-8.07,37.02-15.42,55.09-24.14,2.81-1.36,5.8-2.03,8.61-3.26,8.69,25.87,17.37,51.74,24.67,78.07,8.89,32.09,16.34,64.5,22.51,97.21.38,2.02-.07,4.52,2.85,5.14-11.27,11.07-24.2,19.76-37.88,27.59-8.06,4.62-16.18,8.97-24.56,12.98-10.46,5-21.83,6.77-32.61,10.56-.03-.72.02-1.45-.09-2.16-7.81-51.98-19.26-103.14-35-153.31-3.72-11.87-7.47-23.73-11.21-35.6Z"></path>
    <path class="cls-1" d="m1445.86,317.76c-5.86,6.2-11.67,12.46-17.62,18.58-1.98,2.04-4.15,4.02-6.57,5.49-3.73,2.26-7.28,4.84-9.89,8.18-5.77,7.39-13.92,12.06-20.37,18.61-7.37,7.47-16.24,13.13-23.74,20.47-13.45,13.18-26.06,27.12-38.7,41.06-7.04,7.76-14.34,15.28-21.47,22.96-13.56,14.58-27.95,28.46-39.61,44.69-5.41,7.54-11.33,14.55-17.7,21.24-4.38,4.6-7.29,10.46-12.45,14.37-3.58-.36-7.15-.82-10.74-1.05-54.05-3.45-107.85-1.28-161.46,6.59-57.14,8.39-112.57,23.1-166.25,44.34-284.36,112.52-472.27,383.2-478.5,689.39-1.2,59.22,4.66,117.83,17.29,175.7,5.36,24.58,11.61,48.94,19.99,72.71-.64,2.14-2.21,3.68-3.5,5.39-12.99,17.24-26.02,34.44-39,51.68-38.68,51.41-80.34,100.31-123.85,147.67-1.3,1.41-2.6,2.82-3.85,4.28-1.89,2.22-2.06,4.8-1.31,7.46,1.02,3.59,3.43,4.7,6.51,2.71,1.98-1.28,3.65-3.08,5.3-4.8,26.44-27.49,52.68-55.17,79.32-82.46,19.94-20.43,41.54-39.15,62.28-58.75,10.81-10.21,21.8-20.23,32.7-30.33,1.77,2.05,2.42,4.65,3.4,7.07,23.61,58.12,54.11,112.38,91.2,162.97,13.16,17.95,27.43,35,41.62,52.12-2.87.1-5.75.29-8.62.29-111.8.01-223.61.02-335.41,0-2.62,0-5.28.4-8.42-.72-3.26-5.89-6.8-12.12-10.2-18.44-45.81-85.22-78.85-175.13-98.88-269.78-7.55-35.66-13.06-71.64-16.65-107.93-4.14-41.82-6.1-83.73-5.05-125.73,3.42-138.09,32.87-270.31,90.05-396.2,49.81-109.64,116.89-207.45,201.42-293.21,114.31-115.98,248.75-199.89,403.06-251.87,52.09-17.55,105.37-30.46,159.64-39.07,33.39-5.3,66.98-8.85,100.76-10.82,36.69-2.15,73.38-2.37,110.04-.68,62.86,2.9,124.98,11.6,186.22,26.26,21.9,5.24,43.62,11.14,65.13,17.83,1.38.43,2.79.71,3.86,1.78Z"></path>
    <path class="cls-1" d="m680.37,1385.65c17.48-9.02,36.12-15.04,54.68-21.27,14.71-4.94,29.37-10.08,44.26-14.39,24.89-7.2,50.33-11.29,76.29-11.76.93-.02,1.87.26,2.81.41.77,3.74,1.47,7.5,2.3,11.23,33.26,149.47,172.38,263.56,340.24,251.57,45.47-3.25,88.41-15.84,128.58-37.49,23.49-12.66,45.36-27.68,64.75-46.14,2.94-.81,5.63.31,8.25,1.28,13.41,4.94,26.92,9.5,40.8,13.04,12.9,3.28,25.59,7.38,38.42,10.97,19.06,5.34,38.53,8.42,58.13,11.1,15.49,2.11,31.03,4.52,46.09,9.15,3.59,1.11,7.51,1.13,11.28,1.65,1.59,2.55-.77,3.92-1.84,5.53-10.41,15.54-21.75,30.37-33.98,44.51-68.95,79.79-154.15,133.74-256.12,161.06-14.57,3.9-29.41,6.49-44.1,9.8-56.23.83-112.46.62-168.69.11-12.17-2.59-24.44-4.83-36.51-7.83-152.09-37.75-277.14-142.01-341.36-284.61-15.59-34.62-27.28-70.53-34.27-107.91Z"></path>
    <path class="cls-3" d="m680.37,1385.65c6.99,37.38,18.67,73.29,34.27,107.91,64.23,142.6,189.28,246.86,341.36,284.61,12.07,3,24.34,5.24,36.51,7.83-2,2.01-4.54,1.14-6.83,1.14-156.11.04-312.22.04-468.32.05-2.88,0-5.76.12-8.46-1.14-14.19-17.12-28.46-34.16-41.62-52.12-37.09-50.59-67.59-104.84-91.2-162.97-.98-2.42-1.63-5.02-3.4-7.07,19.73-18.45,39.31-37.07,59.23-55.31,28.94-26.5,58.09-52.76,87.23-79.04,10.82-9.76,21.03-20.23,32.84-28.88,8.75-6.41,18.5-10.83,28.4-15.03Z"></path>
    <path class="cls-3" d="m1261.2,1785.89c14.69-3.32,29.53-5.9,44.1-9.8,101.98-27.31,187.17-81.26,256.12-161.06,12.22-14.15,23.57-28.98,33.98-44.51,1.07-1.6,3.43-2.97,1.84-5.53,15.39,1.57,30.72,3.65,46.08,5.43,8.72,1.01,17.31,3.34,26.15,4.12,11.4,1.01,22.73,2.89,34.14,3.64,10.99.72,21.87,2.26,32.76,3.58,8.6,1.04,17.21,1.31,25.76,1.11,18.45-.43,36.88.2,55.31.14,18.41-.06,36.83.43,55.2-1.26-.7,1.52-1.45,3.02-2.11,4.56-24.4,56.63-55.51,109.33-92.79,158.43-10.73,14.13-22.36,27.54-33.52,41.32-2.42,1.39-5.09,1.12-7.72,1.12-156.18,0-312.36,0-468.55-.04-2.27,0-4.85.93-6.77-1.25Z"></path>
    <path class="cls-1" d="m1914.88,1122.46c9.37,4.68,19.03,8.86,28.03,14.17,9.84,5.8,19.15,12.52,28.55,19.06,11.17,7.77,22.14,15.83,33.28,23.64,5.94,4.17,12.62,7.02,19.8,7.62,14.47,1.22,28.83,3.61,43.36,4.08,2.86.09,5.72.43,8.58.44,15.33.05,30.67.03,46,.02,10.02,0,20.05.35,30.01-1.15,4.69,46.6,5.43,93.33,3.61,140.07-2.13,54.66-8.91,108.83-20.04,162.41-.6,2.91.47,7.08-3.91,8.42-10.16-1.31-20.31-2.77-30.49-3.89-8.28-.91-16.61-1.51-24.92-2.08-11.48-.79-22.37-2.97-32.67-8.8-14.14-8-29.61-12.57-45.56-15.94-10.86-2.3-21.15-6.87-30.61-12.98-7.19-4.64-14.28-9.49-21.77-13.6-8.77-4.82-18.17-8.31-27.62-11.6.36-2.36.64-4.75,1.08-7.1,7.06-37.52,11.15-75.37,12.31-113.52,1.53-50.21-1.37-100.16-9.87-149.72-2.27-13.21-4.77-26.37-7.16-39.55Z"></path>
    <path class="cls-1" d="m1105.37,2114.65v45.11c-2.02,1.96-4.3,1.5-6.39,1.57-42.47,1.49-88.25,30.96-100.64,86.83-1.15,5.2-.73,10.51-.78,15.78-.09,8.63-.12,17.27-.21,25.9,0,.42-.42.83-1.1,2.09-83.11-11.65-163.65-33.72-241.49-65.8-70.83-29.2-137.52-65.88-199.45-111.47h550.05Z"></path>
    <path class="cls-1" d="m1744.23,1786.07c11.16-13.78,22.78-27.19,33.52-41.32,37.28-49.1,68.39-101.79,92.79-158.43.66-1.54,1.41-3.04,2.11-4.56,16.3-.04,32.63.54,48.9-.28,20.32-1.02,40.65-1.04,60.95-1.95,12.58-.56,24.99-2.66,37.46-4.62,16.24-2.55,32.27-6.54,48.71-7.97,5.9-.52,11.75-2.15,17.51-3.69,11.29-3.01,22.84-4.42,34.38-5.97-21.45,77.68-51.93,151.65-90.86,222.19-2.73,4.94-5.63,7.05-11.58,7.03-88.91-.22-177.82-.15-266.72-.17-2.39,0-4.78-.18-7.17-.28Z"></path>
    <path class="cls-1" d="m1247.66,2160.98c-1.25-15.82-.52-30.65-.73-45.38,6.19-1.98,446.6-2.76,480.47-.95-10.47,13.79-116.26,74.69-176.61,101.67-56.85,25.42-166.11,60.49-195.29,62.45,2.91-31.5-6.08-59.25-27.43-82.59-21.35-23.33-48.28-34.61-80.42-35.21Z"></path>
    <path class="cls-4" d="m447.85,1965.32v-80.66h21.96v128.16c-7.49.94-14.64.37-21.76.42-3.04.02-3.63-2.78-4.75-4.78-7.13-12.75-14.21-25.54-21.29-38.32-5.81-10.48-11.59-20.97-17.41-31.44-.92-1.65-1.99-3.23-3.66-4.8-.72,8.67-.64,17.31-.65,25.94-.01,8.63,0,17.26,0,25.89v27.17c-7.56.7-14.61.36-22.16.28v-128.44c7.19-1.14,14.09-.47,20.95-.49,3.01,0,3.62,2.85,4.73,4.83,6.09,10.87,12.05,21.81,18.07,32.71,7.29,13.22,14.57,26.44,21.93,39.61.75,1.34.95,3.29,4.07,3.91Z"></path>
    <path class="cls-4" d="m799.89,1884.69v128.01c-7.38,1.22-14.53.37-21.63.56-3.09.08-3.83-2.54-4.95-4.55-8.29-14.86-16.52-29.75-24.77-44.63-4.88-8.8-9.74-17.61-14.67-26.39-.77-1.36-1.19-3.09-3.79-4.26v79.46h-21.34c-1.54-5.15-1.95-119.06-.4-128.21,6.67-1.13,13.55-.35,20.39-.47,3.08-.06,3.71,2.69,4.82,4.69,11.02,19.92,21.99,39.87,32.98,59.8,3.08,5.58,6.21,11.13,9.32,16.7.53-.11,1.06-.21,1.58-.32v-80.41h22.45Z"></path>
    <path class="cls-4" d="m620.53,1934.34h57.2c.59,7.7.59,14.75,0,22.47h-56.27c-1.86,5.94-.79,11.44-.98,16.85-.19,5.24-.04,10.48-.04,16.53h63.15c1.53,6.13,1.65,15.02.5,21.97-5.15,1.43-79.07,1.75-87.6.3v-127.88h85.34c1.23,7.24.46,14.31.47,22.24h-61.35c-.92,9.35-.43,17.86-.41,27.51Z"></path>
    <path class="cls-4" d="m208.71,1884.43h22.49c2.05,2.57,1.34,5.31,1.35,7.88.05,21.83,0,43.66.05,65.49.01,5.27.11,10.56.56,15.81.91,10.55,8.15,17.59,18.71,18.35,2.86.2,5.78.21,8.61-.15,7.75-1,12.97-6.04,14.71-13.7,1.24-5.44,1.23-10.95,1.24-16.47.02-22.79,0-45.58,0-68.37,0-2.62,0-5.24,0-8.7,8.12-.72,15.85-.52,23.3-.11,1.75,2.38,1.16,4.61,1.16,6.69.01,23.75-.08,47.5-.05,71.25,0,6.73-.52,13.4-1.38,20.07-2.14,16.56-13.27,28.81-29.65,31.98-9.98,1.93-20.1,1.83-30.05-.14-18.28-3.64-29.36-17.12-30.86-37.37-.67-9.08-1.06-18.2-1.14-27.31-.17-18.95-.07-37.9-.04-56.86,0-2.59-.4-5.25.95-8.36Z"></path>
    <path class="cls-4" d="m1204.2,1884.33h25.55c15.3,42.54,30.66,85.24,46.26,128.61h-26.49c-3.29-9.38-6.6-18.81-9.92-28.29h-45.01c-3.16,9.37-6.35,18.81-9.58,28.35h-25.88c15.1-43.12,30.02-85.73,45.07-128.68Zm13.31,34.95c-.52-.03-1.04-.07-1.56-.1-4.56,13.88-9.12,27.77-13.77,41.95h29.3c-4.8-14.39-9.39-28.12-13.97-41.85Z"></path>
    <path class="cls-4" d="m860.94,1884.42h25.6c15.34,42.63,30.69,85.3,46.25,128.57h-26.46c-3.28-9.34-6.58-18.74-9.92-28.26h-45.08c-3.18,9.42-6.31,18.66-9.52,28.16h-25.9c15.17-43.27,30.09-85.85,45.03-128.47Zm27.43,76.92c-5.1-14.8-9.25-28.8-15.13-43.96-4.89,15.69-10.05,29.39-14.02,43.96h29.15Z"></path>
    <path class="cls-4" d="m1569.21,2013.03c15.26-43.53,30.13-85.95,45.06-128.55h25.64c15.23,42.34,30.58,84.99,46.19,128.36h-26.51c-3.15-9.07-6.43-18.5-9.76-28.1h-45.27c-3.14,9.49-6.28,18.95-9.37,28.29h-25.98Zm72.46-51.79c-4.84-14.44-9.48-28.3-14.33-42.78-3.48,6.15-13.08,35.12-14.32,42.78h28.65Z"></path>
    <path class="cls-4" d="m1876.33,1965.47c-.88,7.98-.31,15.84-.41,23.68-.1,7.65-.02,15.3-.02,23.73-8.09.82-15.82.39-24.02.26v-127.87c.65-.39,1.04-.84,1.44-.84,18.67-.18,37.31-.56,55.99.55,15.04.89,25.85,11.52,29.47,24.37,2.78,9.88,2.79,19.91,0,29.79-4.12,14.62-15.9,24.14-31.45,25.21-7.87.54-15.8.32-23.7.47-2.34.04-4.74-.29-7.31.66Zm-.11-24.06c7.04,1.54,22.3,1.22,27.94-.51,7.09-2.18,11.46-8.41,11.49-16.39.03-7.81-4.49-14.36-11.7-16.14-9.11-2.25-18.34-1.17-27.73-1.26v34.3Z"></path>
    <path class="cls-4" d="m1388.55,1920.49c-8.15,2.19-15.49,4.17-22.59,6.07-2.34-1.21-2.21-3.35-2.89-5.08-3.39-8.68-9.4-14.52-18.81-15.82-9.76-1.34-17.94,1.95-24.06,9.84-4.41,5.69-6.31,12.45-6.98,19.38-1.1,11.22-1.33,22.49,1.16,33.62,1.05,4.71,2.71,9.18,5.56,13.14,10.9,15.12,32.23,13.59,40.84-2.91,2.11-4.04,3.35-8.4,4.65-13.16,4.36-.1,7.93,1.95,11.68,3.17,3.84,1.25,7.62,2.67,11.32,3.98-2.76,24.94-21.45,41.52-45.69,42.62-27.96,1.27-46.9-18.4-52.62-41.07-4.62-18.29-4.38-36.67,1.4-54.62,6.06-18.8,18.18-32.05,38.1-36.38,10.42-2.27,21.02-2.03,31.12,2.04,15.52,6.24,24.06,18.13,27.79,35.18Z"></path>
    <path class="cls-4" d="m1125.23,1964.92c6.71,2.32,12.8,4.42,18.9,6.52,1.12.39,2.35.57,3.15,1.66-.32,20.36-19.27,40.16-40.16,41.89-29.31,2.43-50.66-12.7-57.79-41.3-4.62-18.54-4.26-37.14,1.88-55.25,6.27-18.48,18.54-31.47,38.23-35.24,17.54-3.35,33.96-.58,46.89,13.28,6.2,6.65,9.5,14.69,11.44,23.75-7.93,2.76-15.54,4.49-22.73,6.2-2.42-1.47-2.17-3.67-2.89-5.37-3.77-8.85-9.98-14.64-19.82-15.5-10.47-.91-18.66,3.2-24.35,12.11-2.62,4.11-4.15,8.7-4.93,13.41-2.17,13.12-2.09,26.24,1.05,39.23,1.43,5.91,4.1,11.21,8.72,15.4,11.25,10.22,27.88,7.97,36.03-4.83,3-4.71,4.02-10.18,6.38-15.96Z"></path>
    <path class="cls-4" d="m1486.5,1965.04c7.38,2.5,14.58,4.94,21.46,7.27.44.83.91,1.29.85,1.65-5.15,27.44-24.2,40.59-45.12,41.43-29.33,1.18-48.65-18.82-54.03-44.73-3.35-16.15-3.18-32.49,1.44-48.39,5.81-20.01,17.91-34.42,39.07-38.98,11.9-2.57,23.84-1.89,35.03,3.83,13.37,6.84,20.34,18.25,23.72,32.89-7.74,3.15-15.59,4.55-22.78,6.51-2.15-1.63-2.17-3.47-2.75-4.98-3.58-9.34-10.04-15.11-20.16-16-10.86-.95-19.03,3.7-24.6,12.95-4.07,6.77-4.95,14.46-5.66,22.09-.97,10.33-.17,20.62,2.5,30.65,3.35,12.57,12.43,20.25,23.62,20.75,10.32.46,17.43-4.44,21.98-13.23,2.17-4.19,3.53-8.8,5.44-13.69Z"></path>
    <path class="cls-4" d="m2074.5,1884.8v22.01h-33.2v105.91c-8.26,1.04-15.8.57-24.33.36-.22-17.71-.07-35.1-.1-52.48-.03-17.47,0-34.95,0-52.95-11.21-1.54-22.2.15-33.55-1.01v-21.21c5.19-1.57,78.12-2.12,91.19-.64Z"></path>
    <path class="cls-4" d="m973.15,1990.62h57.28v22.23h-80.5c-1.56-4.77-2.1-116.52-.53-127,3.58-1,7.41-.39,11.16-.49,3.81-.1,7.62-.02,12.41-.02.35,8.92.13,17.45.17,25.96.04,8.86,0,17.73,0,26.59v52.73Z"></path>
    <path class="cls-4" d="m1555.72,1884.16v128.6c-7.81,1.07-15.37.36-22.79.49-1.69-5.31-2.06-120.53-.52-128.32,1.69-1.22,3.67-.73,5.53-.75,5.7-.07,11.39-.02,17.78-.02Z"></path>
    <path class="cls-4" d="m1786.03,1978.66h-43.59v-24.01c4.95-1.57,35.9-1.8,43.64-.16.5,7.81.49,15.77-.05,24.17Z"></path>
    <path class="cls-4" d="m328.28,1987.97c7.95-.67,15.03-.49,22.88-.15.76,8.37.48,16.54.16,25.1h-22.89c-.34-8.08-.08-16.1-.15-24.95Z"></path>
    <path class="cls-4" d="m520.58,2012.93c-7.51.61-14.58.49-22.12.11-1.16-8.31-.36-16.34-.55-24.92h22.66v24.81Z"></path>
    <path class="cls-4" d="m1941.99,1987.96h22.77v24.74c-7.49,1.27-14.73.29-22.25.65-.98-8.87-.31-16.86-.53-25.39Z"></path>
    <path class="cls-4" d="m2098.53,1987.54c.64,8.89.57,16.88.1,25.26-7.48.98-14.56.4-22.52.38-.82-8.41-.19-16.58-.36-25.06,7.76-1.07,14.85-.35,22.78-.58Z"></path>
    <path class="cls-5" d="m1100.24,1356.7c-5.73,1.92-10.53,1.94-15.51.46-23.59-6.99-47.19-13.94-70.6-21.55-12-3.9-24.23-7.33-36.6-9.78-8.85-1.76-17.85-3.12-26.81-4.47-9.22-1.4-18.18-3.99-27.45-5.21-6.87-.91-13.8-1.88-20.65-2.02-15.09-.31-30.24-1.79-45.28-.06-13.03,1.51-26.24.19-39.17,3.8-17.68,4.94-35.59,9.11-52.85,15.42-11.68,4.27-23.79,7.1-35.56,11.01-5.84,1.94-11.34,4.93-16.98,7.5-5.65,2.58-11.27,5.22-16.79,7.79-3.45-1.85-3.88-4.95-3.79-8.13.3-10.55,4.89-19.37,11.73-27.02,6.25-6.98,13.85-12.52,21.4-17.99,5.19-3.76,6.9-9.67,9.93-14.72,1.66-2.77-.72-6.26-4.5-6.44-7.13-.33-13.44-3.18-19.94-5.48-8.75-3.11-16.58-7.55-21.29-16.07-1-1.82-2.47-3.17-4.58-2.76-2.92.57-5.45,2.03-6.43,5.11-1.74,5.5-2.66,11.18-3.06,16.91-1.11,15.71-8.03,29.19-17.55,40.99-7.93,9.83-19.68,15.04-31.27,19.79-1.67.69-3.79.38-5.7.39-7.83.06-9.03-1.02-9.25-9.06-.5-18.29.62-36.3,7.8-53.57,2.73-6.57,4.19-13.71,5.78-20.69,2.53-11.13,7.85-21.11,12.9-31.11,7.33-14.53,15.47-28.65,25.75-41.4,9-11.15,18.16-22.04,30.52-29.84,6.85-4.33,13.28-9.26,20.33-13.4,12.27-7.19,25.11-6.86,38.29-4.79,6.54,1.03,12.28,3.88,16.83,8.9,1.27,1.41,2.71,2.81,4.33,3.74,8.14,4.66,12.14,12.64,16.6,20.27.72,1.23,1.19,2.62,2.02,3.76,4.24,5.82,7.1,6.48,13.39,3.06,20.09-10.9,41.42-18.61,63.36-24.75,3.69-1.03,7.3-2.34,11-3.31,9.04-2.36,18.26-3.14,27.56-3.98,9.42-.85,18.82-3.08,27.96-5.65,8.62-2.42,17.48-2.43,26.16-3.99,2.79-.5,5.61-.75,8.4-1.48,17.53-4.55,35.1-8.96,52.66-13.42,1.62-.41,3.34-.64,4.79-1.39,7.04-3.63,14.38-6.67,21.89-8.98,15.98-4.92,30.02-13.86,43.97-22.35,16.49-10.04,33.27-19.81,48.74-31.57,6.82-5.18,14.65-8.99,21.85-13.7,10.42-6.8,20.54-14.05,30.18-21.92,6.71-5.48,13.8-10.33,21.59-14.08,15.33-7.38,29.43-16.91,44.22-25.23,11.28-6.34,23.19-11.32,34.93-16.67,14.34-6.54,28.34-13.63,41.65-22.25,11.18-7.24,23.22-13.35,36.09-17.35,5.26-1.64,10.39-3.54,15.54-5.49,14.03-5.33,28.01-10.8,42.46-15.03,11-3.22,21.71-7.41,32.58-11.08,15.98-5.39,32.15-9.23,49.2-6.05,3.1.58,6.1,1.36,8.76,3.06,3.27,2.09,6.27,4.64,7.17,8.54,1.81,7.81-.01,10.61-7.85,13.19-17.93,5.91-36.05,11.33-53.72,17.95-11.17,4.19-22.14,9.03-33.32,13.26-9.62,3.64-18.56,8.8-28.1,12.5-16.32,6.34-30.49,16.58-46.01,24.34-8.32,4.16-16.4,8.82-24.6,13.22-2.19,1.18-4.47,2.41-3.59,5.39.8,2.72,3.39,3.34,5.79,3.42,5.99.19,11.99.1,17.99.11,5.25.01,10.5,0,15.93,0,.33,3.54-1.34,5.25-3.58,6.84-5.45,3.86-11.07,7.43-16.93,10.66-10.89,6.01-21.57,12.39-31.05,20.52-2.52,2.16-4.85,4.76-5.63,8.16-.9,3.88,1.7,6.22,5.33,4.66,12.94-5.58,26.1-10.56,39.33-15.38,14.38-5.23,28.57-10.98,43.39-14.94,3-.8,5.86-2.1,8.84-2.95,7.11-2.03,14.03-4.89,21.53-5.39,5.83-.39,11.01-3.1,16.5-4.7,10.1-2.94,20.17-5.89,30.09-9.5,9.93-3.62,20.21-4.18,29.67,2.17,4.77,3.2,5.47,6.14,2.68,10.79-3.4,5.65-5.4,6.29-11.09,3.5-2.79-1.37-5.51-2.94-8.38-4.12-6.12-2.52-12.1-1.35-16.68,2.92-2.66,2.48-5.29,3.08-8.3,3.08-13.55.04-25.77,4.1-37.25,11.17-4.18,2.57-7.89,5.42-10.49,9.47-6.74,10.46-13.77,20.87-16.62,33.2-1.74,7.52-1.67,15.09,2.1,22.36,5.38,10.36,15.85,11.26,24.71,8.66,3.28-.96,5.41-3.57,6.95-6.82,4.21-8.88,8.64-17.65,13.12-26.39,4.98-9.73,11.56-17.64,23.24-19.4,8.19-1.23,16.25-.96,23.98,2.28,3.49,1.46,6.87,3.29,8.75,7.37-7.3,6.49-16.73,11.14-16.1,23.5.58,11.49,6.48,18.46,16.38,23.54-4.03,8.34-10.96,12.96-18.68,16.04-12.87,5.13-25.98,9.67-39.44,13.12-7.65,1.96-13.31,7.24-16.39,13.98-2.39,5.24-1.02,11.43,3.24,16.1,1.9,2.08,4.23,3.77,6.59,5.82-6.21,5.18-11.96,9.27-16.12,15.37-6.17,9.03-2.27,20.17,4.17,24.98.94.7,2.22.97,2.69,2.38.26,2.47-.62,4.52-2.68,6.15-6.15,4.84-7.98,11.53-8.23,18.99-.8,23.17,9.59,40.36,28.47,53.22-.32,3.66-2.77,6.06-4.92,8.49-2.02,2.28-6.12,1.78-7.45,5.36.46,5.25,4.11,6.58,8.72,7.61,18.94,4.25,36.66-.27,53.86-7.48,8.04-3.37,14.48-9.18,18.88-17.02,1.69-3.02.94-4.94-1.73-6.57-2.65-1.61-5.4-3.08-7.98-4.81-5.99-4.03-11.78-8.25-14.4-15.47-.56-1.53-1.73-2.87-2.75-4.2-8.56-11.17-11.9-23.78-10.67-37.73.57-6.42,1.29-12.87,1.31-19.3.02-10.1,4.19-18.65,9.61-26.6,5.11-7.5,10.66-14.76,16.67-21.55,4.88-5.52,10.76-10.11,17.69-13.42,5.15,6.28,8.21,14.07,16.09,17.32-1.9,17.53,2.11,31.72,20.23,38-.33,2.84-2.23,1.82-3.33,1.82-9.38,0-17.7,3.22-25.96,7.39-10.58,5.35-12.19,22.05-2.46,29.82,3.54,2.83,7.16,2.49,10.82,1.06,5.79-2.27,11.39-5.02,17.18-7.29,8.43-3.3,25.33-2.15,34.04,2.34-3.95,4.6-8.79,8.12-13.58,11.2-5.71,3.67-8.72,8.67-10.75,14.65-1.3,3.85-.44,5.58,3.17,7.57,1.73.95,3.53,1.33,5.5,1.38,12.05.31,23.82-.88,35.23-5.22,5.71-2.17,11.96-1.62,17.79-.57,4.64.84,6.39,5.47,7.5,9.72.46,1.78.08,3.78.08,6.03-7.04,3.62-14.4,5.29-22.11,5.46-11.03.25-22.02.74-32.45,4.9-3.78,1.51-7.54,3.08-11.23,4.81-8.85,4.13-10.71,12.71-9.49,18.3,1.5,6.88,9.69,12.15,17.93,11.26,5.27-.57,9.95-3.23,15.28-3.74,12.39-1.2,24.77-2.4,37.24-2.03,2.7.08,5.16.88,7.9,2.01-.67,4.12-3.73,6.28-6.66,8.63-6.56,5.27-10.18,11.85-9.36,20.62.25,2.65,1.21,4.37,3.1,6.05,3.3,2.93,7.16,4.83,11.18,6.38,9.63,3.72,9.7,3.73,3.88,11.87-2.62,3.67-3.89,7.51-2.79,12.13.94,3.96,3.11,6.32,7.04,7.15,13.03,2.77,25.78,2.51,39.05-.09,13.92-2.73,25.6-10.27,38.73-14.49,14.22-4.57,28.26-4.79,42.18.43,6.09,2.29,11.42,5.97,13.03,13.08-1.78,1.8-3.8,1.14-5.58,1.15-13.44.07-26.88.27-40.31-.04-10.31-.24-19.34,3.12-27.48,8.92-4.77,3.4-6.93,8.99-6.35,14.54.6,5.67,4.2,10.02,10.09,11.96,13.48,4.46,26.84,3.43,40.26-.32,9.67-2.69,19.38-5.29,29.17-7.45,14.9-3.29,30.01-2.69,45.07-1.41,3.8.32,7.59.88,11.42,1.16,2.37.17,4.72.72,7.06,1.2,1.44.29,2.86.9,3.17,2.52.38,1.98-.92,2.89-2.53,3.8-5.45,3.08-11.29,5.17-17.18,7.13-9.08,3.02-18.23,5.81-27.29,8.85-8.29,2.79-16.9,3.11-25.47,3.35-6.83.19-13.26,1.37-19.49,4.23-2.26,1.04-4.07,2.41-5.78,4.1-4.32,4.28-6.06,9.53-3.87,15.1,2.19,5.59,7.33,8.19,13.13,8.6,5.24.37,10.55.4,15.8-.42,17.8-2.77,34.91-7.99,51.79-14.18,13.68-5.02,27.05-10.94,41.23-14.53,12.57-3.19,24.65-1.23,36.55,3.19,3.11,1.15,4.68,3.51,4.87,6.49.2,3.26-2.67,4.2-5.14,5.19-13.79,5.54-27.75,10.25-42.72,11.76-5.72.58-11.43.8-17.12,1.35-10,.97-19.73,2.81-27.77,9.9-6.93,6.11-6.23,16.7,2,20.89,7.38,3.76,15.27,4.02,23.14,2.33,12.38-2.65,24.66-5.68,36.87-9.19,20.44-5.88,41.29-10.3,61.8-15.96,8.48-2.34,16.89-3.19,25.55-2.89,6.82.23,13.18,1.86,18.79,5.58-1.11,7.04-4.3,9.78-12.23,10.75-12.09,1.47-24.32,2.2-36.26,4.49-15.68,3-31.8,3.95-46.98,9.53-4.07,1.5-7.93,3.38-11.78,5.32-10.04,5.07-9.47,13.45.05,19.19,8.45,5.11,18.13,7.3,28.35,4.68,15.05-3.87,29.86-8.58,44.79-12.82,19.98-5.66,40.54-8.89,61.13-11.88,14.41-2.1,28.82-4.77,43.3-5.68,18.36-1.15,36.92-1.63,54.99,3.43,6.34,1.78,11.95,4.81,16.43,10.33-4.87,5.01-11.19,7.3-17.25,9.86-9.93,4.18-20.21,7.35-30.73,9.7-3.57.8-6.3,3.22-9.85,4.18-9.93,2.69-20.05,4.25-30.11,6.22-14.77,2.89-29.66,4.93-44.5,7.33-3.06.49-6.18.91-9.27.93-17.23.06-34.4,1.43-51.59,2.34-14.12.75-28.29.36-42.44.6-13.4.24-26.81-.6-40.21.88-10.27,1.14-20.54-.82-30.84-.92-14.63-.14-29.26.39-43.89-.35-3.15-.16-6.15-.82-9.71-1.4.14-5.54-3.76-6.37-8.37-7.01-9.94-1.38-20.06-1.07-30.26-3.12-.92-4.3-1.41-8.69-3.68-12.8-2.78-5.06-6.56-7.15-12.04-7.45-8.56-.47-16.68,1.07-24.42,4.66-7.59,3.53-15.57,6.1-23.08,9.87-5.83,2.93-12.2.79-18.27,1.3-2.25-3.27-1.91-5.7.74-7.9,2.23-1.85,4.62-3.68,7.38-4.35,8.56-2.1,16.86-5.16,25.93-5.27,6.64-.09,13.26-1.59,19.15-5.18,3.88-2.37,6.43-5.67,7.37-10.13,1.93-9.27-4.2-13.92-12.59-15.77-5.93-1.31-12.36-.21-18.6.43-17.4,1.8-34.24,6.58-51.46,9.11-12.27,1.8-24.66,1.66-36.66-3.64-10.36-4.58-21.27-6.6-32.85-3.31-7.78,2.21-11.49,7.14-13.3,14.34-1.16,4.61-1.41,9.35-1.47,14.52-7.86.35-15.01-1.62-22.15-3.1-12.37-2.56-24.62-5.7-36.94-8.5-18.71-4.25-36.95-9.96-54.04-18.73-6.59-3.38-11.23-8.86-10.66-17.21.23-3.34-.14-6.73.07-10.07,1.15-18.57-4.88-34.81-15.83-49.49-1.15-1.54-2.51-2.93-3.48-4.57-1.47-2.47-3.3-4.36-6.32-3.36-3.2,1.06-5.07,3.39-5,7.02.11,5.51-.02,11.04.22,16.54.18,4.05.75,8.08,1.22,12.11,1.32,11.28-1.79,21.28-9.22,30.74-10.63-1-21.8-1.42-32.48-5.42-18.37-6.87-36.96-13.18-55.14-20.51-12.42-5.01-24.41-11.14-36.38-17.17-16.46-8.3-33.48-15.49-49.39-24.88-1.65-.97-3.55-1.68-4.89-2.97-9.01-8.65-19.38-15.54-29.34-22.95-3.9-2.9-6.6-6.89-9.8-10.43-9.88-10.9-16.76-23.68-23.79-36.46-5.75-10.46-12.3-20.45-15.93-31.97-1.3-4.14-2.17-8.24-2.58-12.57-1.1-11.69-1.89-23.36-1.87-35.12.02-16.29,2.91-31.72,10.18-46.49,12.74-25.88,29.96-47.67,54.79-62.93,1.63-1,3.27-2,4.85-3.08,4.82-3.29,8.78-7.15,10.68-13,1.92-5.91,4.57-11.57,6.74-17.4.65-1.76.96-3.72,1.06-5.61.29-5.35-1.42-7.53-6.58-8.51-8.82-1.68-17.56-1-26.23,1.06-3.78.9-7.07,2.83-10.31,4.94-10.83,7.06-19.27,16.46-26.15,27.21-7.33,11.44-15.54,22.25-22.29,34.13-7.28,12.81-13.03,26.05-16.91,40.2-5.73,20.89-8.36,42.21-8.37,63.81,0,14.33.5,28.68,2.78,42.9,1.26,7.88,4.69,15.04,7.23,22.47,1.32,3.87,1.85,7.81,3.4,12.21Zm35.5-103.36c.27,2.93.27,7.22,1.01,11.49,2.13,12.34,6.07,24.13,11.46,35.34,4.42,9.19,9.35,18.08,16.64,25.61,5.15,5.31,10.89,10.01,15.74,15.59,5.63,6.48,9.6,6.52,15.17-.04,1.28-1.51,1.97-3.25,2.7-5.02,3.12-7.58,2.3-15.54,2.31-23.42,0-2.09-1.17-3.51-2.72-4.81-4.29-3.59-7.36-8.08-9.61-13.2-6.75-15.37-13.33-30.67-11.19-48.2,1.6-13.13,4.48-25.85,9.63-38.04,4.76-11.28,11.19-21.63,17.46-32.09,3-5.01,1.68-7.22-4.13-6.97-15.85.67-29.73,5.14-39.94,18.68-7.15,9.48-12.81,19.53-17.35,30.4-4.47,10.69-7.74,21.58-7.19,34.67Zm311.46,126.69c12.19,1.07,23.42-4.01,35.22-5.53,4.51-.58,9.03-.5,13.53-1.04,8.07-.96,15.88-3.18,24-3.95,12.5-1.19,22-7.12,26.79-19.44,3.85-9.92,2.22-18.85-5.28-26.34-7.08-7.07-14.98-7.88-23.33-2.32-1.39.92-2.58,2.14-3.92,3.14-16.1,12.01-34.05,18.9-54.24,19.63-7.39.27-14.75,1.07-22.17,1.13-5.47.05-10.38,2.3-13.01,7.52-4.48,8.87-1.9,21.93,9.72,25.91,4.3,1.48,8.47,1.04,12.7,1.29Zm151.57,107.6c9.81.25,19.59-.65,29.37-.89,12.19-.31,24.31-1.59,36.52-1.78,12.98-.2,19.54-12.27,13.94-24.01-4.68-9.82-11.26-17.41-21.99-21.29-5.12-1.85-9.43-2.07-14.45-.14-4.19,1.62-6.89,4.35-8.5,8.16-4.22,9.98-12.74,13.18-22.38,13.93-6.93.54-13.71,1.93-20.57,2.67-7.34.79-14.74,2.64-22.1,1.65-10.28-1.38-20.55-.5-30.81-.83-4.88-.16-9.42,1.49-13.98,2.89-5.11,1.58-6.71,6.03-7.4,10.53-.75,4.85,1.96,7.65,7.03,7.55,25.13-.5,50.22.95,75.32,1.56Zm-65.08-68.61c-11.26,0-22.51.08-33.77-.05-3.42-.04-6.68.51-9.85,1.59-3.13,1.07-4.74,3.26-3.7,6.66,1.85,6.05,4.09,11.54,11.22,13.62,3.95,1.15,7.72,2.19,11.86,2.12,7.9-.13,15.81.16,23.71-.1,6.33-.21,12.5.76,18.33,2.76,15.89,5.46,32.12,2.1,48.19,2.38,9.95.17,18.18-5.03,26.14-10.53,5.1-3.52,7.6-8.74,9.04-14.21,1.45-5.53.02-10.94-4.91-14.76-8.11-6.28-16.94-8.47-26.67-4.33-3.27,1.39-6.34,3.21-9.38,5.17-9.31,6-19.2,10.27-30.76,9.76-9.8-.44-19.63-.09-29.45-.09Zm1.7-14.96c5.99,0,12-.24,17.98.06,6.57.33,12.84-1.11,19.14-2.5,6.4-1.42,11.31-4.9,14.35-10.86.98-1.92,2.1-3.76,3.22-5.6,5.84-9.53,3.94-18.99-.9-27.98-5.28-9.78-15.09-11.09-23.28-3.71-1.42,1.28-3.13,2.32-4.31,3.79-8,9.94-17.5,16.9-30.52,19.55-7.5,1.53-14.75,3.67-22.51,3.37-5.27-.2-10.57.26-15.82-.11-9.29-.65-17.37,2.71-25.17,7.03-4.11,2.28-7.69,5.43-7.35,10.61.37,5.73,3.56,10.14,9.03,11.86,11.53,3.63,23.06,4.25,33.71-2.87,2.96-1.98,5.95-2.74,9.43-2.68,7.67.13,15.35.04,23.02.04Zm-835.9-165.8c-.72,17.59,13.88,36.06,35.87,36.11,19.68.04,36.07-15.74,35.92-36.17-.16-22.28-19.03-35.53-35.62-35.73-19.57-.24-36.84,16.92-36.17,35.8Zm668.96,157.65c6.17-.04,9.95-1.1,16.32-4.4,9.88-5.12,11.6-18.07,3.52-25.8-7.27-6.95-15.17-13.17-23.77-18.25-11.76-6.96-22.76-7.34-32.25-.14-6.24,4.73-7.95,14.59-3.82,21.24,5.53,8.91,13.3,15.59,21.87,21.27,5.57,3.69,11.65,6.71,18.14,6.07Zm-584.36-99.34c9.98,0,14.2-1.52,20.58-6.44,4.99-3.84,7.34-9.22,9.84-14.63,5.14-11.1,8.45-22.79,11.24-34.65.56-2.36.11-4.48-2.07-5.56-2.47-1.22-3.99.58-5.22,2.47-1.7,2.61-3.32,5.33-6.09,6.95-7.4,4.32-14.57,9.07-23.02,11.33-5.98,1.6-12.13,2.8-17.73,5.53-5.24,2.55-9.85,5.59-9.86,12.62-.03,13.3,8.82,22.36,22.32,22.37Zm550.71,25.93c6.13.12,10.74-2.8,15.31-5.96,5.23-3.61,6.93-8.5,5.1-14.37-3.15-10.1-7.54-19.44-15.84-26.67-10.31-8.99-25.17-9.65-36.06-.94-6.87,5.5-7.93,11.7-2.45,18.59,5.78,7.27,12.31,13.92,18.11,21.22,3.94,4.97,9.28,8.31,15.83,8.13Zm9.79-84.91c0,3.11-.03,6.21.02,9.32.01.7.27,1.4.49,2.09,2.14,6.74,5.52,8.35,11.92,5.2,16.35-8.06,25.84-20.49,25.34-39.55-.13-4.82-1.18-8.84-4.24-12.5-3.44-4.12-5.53-4.61-10.52-2.18-15.71,7.64-23.81,19.93-23.01,37.63Zm24.38-70.19c.78,4.53-.06,10.07,1.71,15.45,1.94,5.93,7.06,7.83,11.17,3.21,7.61-8.56,15.07-17.3,19.17-28.31,3.92-10.52-2.93-21.74-13.18-20.79-7,.65-12.43,4.22-16.03,10.64-3.39,6.05-2.91,12.46-2.83,19.8Z"></path>
    <path class="cls-3" d="m458.06,1521.06c-8.38-23.76-14.63-48.13-19.99-72.71-12.63-57.88-18.49-116.48-17.29-175.7,6.23-306.19,194.14-576.87,478.5-689.39,53.68-21.24,109.11-35.95,166.25-44.34,53.61-7.87,107.41-10.03,161.46-6.59,3.59.23,7.16.69,10.74,1.05-9.91,10.29-17.91,22.16-27.17,33-3.51,4.1-5.33,9.61-8.65,13.92-13.12,17.02-26.15,34.14-37.92,52.07-8,12.18-18.13,22.64-25.86,35-3.65,5.84-6.46,12.11-10.52,17.78-10.1,14.09-18.12,29.56-28.04,43.81-7.65,10.99-13.54,22.87-18.86,35.19-3.87,8.97-7.38,17.93-9.66,27.4-4.44.97-8.91,1.85-13.33,2.92-153.11,37.1-280.69,143.8-344.44,288.19-7.54,17.08-14.56,34.4-19.41,52.49-6.59,4.76-14.18,7.85-20.81,12.64-8.24,5.95-15.36,12.84-21.07,21.16-9.89,14.4-18.54,29.45-25.9,45.37-6.65,14.38-11.95,29.18-17.14,44.08-1.8,5.18-3.95,10.22-5.68,15.45-3.97,12.06-6.17,24.53-9.16,36.81-1.94,7.95-2.18,16.13-2.02,24.28.12,5.74-1.64,10.48-5.19,15.19-26.91,35.81-53.48,71.87-80.31,107.74-15.49,20.72-31.27,41.23-46.93,61.81-.42.55-1.06.93-1.59,1.39Z"></path>
    <path class="cls-5" d="m1176.25,998.62c.07-5.7-.28-11.45.29-17.1,2.71-26.86-2.25-51.85-17.41-74.51-2.13-3.18-4.09-6.47-6.26-9.63-2.57-3.74-5.47-7.04-9.13-9.95-7.32-5.8-13.4-12.97-19.47-20.05-4.35-5.07-8.22-10.56-12.34-15.84-8.07-10.36-12.08-22.1-12.33-35.21-.42-22.97,6.11-43.89,18.73-62.93,7.16-10.81,12.6-22.6,19.4-33.56,10.22-16.46,18.17-34.26,30.18-49.66,4.68-6,8.59-12.68,12.27-19.37,9.29-16.9,23.17-30.42,33.63-46.41,6.58-10.06,15.92-17.88,22.13-28.09,8.24-13.55,19.01-25.14,28.24-37.91,6.3-8.71,13.52-16.7,19.98-25.31,3.51-4.68,9.97-7.8,16.17-9.75,1.37-.43,2.78-.69,4.18-1.02,6.79-1.61,11.25-.3,14.52,4.74,3.19,4.94,3.72,9.57.22,15.26-3.81,6.2-7.91,12.4-9.7,19.84-2.23,9.3-1.22,18.11,2.51,26.56,2,4.53,4.47,8.93,7.51,13.03,3.13,4.23,6.72,7.49,11.66,8.99,4.99,1.52,6.99,4.51,7.64,9.8,1.11,9.07,4.43,17.59,9.71,25.19,2.77,4,6.2,7.27,10.88,8.71,1.25,1.6.77,3.34.84,4.95.48,10.33,4.3,19.67,9.43,28.3,3.66,6.16,10,9.34,17.67,10.29,1.45,3.27,2.75,6.71,3.17,10.61,1.41,13.37,7.37,24.4,19.08,31.18,8.31,4.81,12.24,12.18,15.87,20.34,3.38,7.61,5.13,15.76,9.32,23.19,5.43,9.61,13.62,15.06,23.1,19.34,6.73,3.03,13.73,5.34,21.82,7.15-2.24,3.76-4.18,6.94-6.03,10.17-2.08,3.62-3.24,7.43-2.23,11.68,1.64,6.87,6,9.7,12.75,7.8,7.13-2.01,14.17-4.32,21.24-6.54,10.73-3.37,21.33-7.23,32.2-10.05,17.49-4.53,35.4-5.65,53.43-4.73,10.26.52,20.55.42,30.67,2.74,7.14,1.64,13.54,4.63,19.33,9.07,9.69,7.44,7.87,22.62-3.29,27.61-10.9,4.88-22.64,5.91-34.26,6.93-10.71.94-21.36,2.3-32.03,3.49-12.58,1.4-25.08,3.27-37.55,5.31-13.67,2.24-27.16,5.38-40.37,9.6-15.02,4.8-30.03,9.63-45.11,14.26-4.37,1.34-8.56,3.01-12.68,4.94-4.92,2.31-6.88,1.65-10.53-2.52-5.19-5.94-9.59-12.55-15.34-18.01-4.66-4.43-6.96-4.13-10.65,1.31-3.76,5.55-7.72,10.96-11.36,16.59-5.91,9.15-14.19,15.31-23.75,20.18-5.74,2.92-11.08,6.6-16.7,9.76-22.35,12.57-46.31,21.85-69.02,33.68-13.28,6.92-26.8,13.33-39.12,22.04-13.71,9.69-29.3,16-44.49,22.91-6.58,2.99-12.88,6.25-18.73,10.44l.1.14Zm250.58-209.09c-.12-2.85.01-5.66-.79-8.53-3.63-12.98-17.41-15.21-25.3-7.23-2.71,2.73-3.46,6.13-5.34,9.06-4.39,6.81-6.41,14.32-7.8,22.16-1,5.68-.78,11.5-1.91,17.09-.9,4.43.4,8.1,2.24,11.69,2.1,4.1,5.74,5.47,10.27,4.37,5.56-1.36,10.18-4.35,13.44-9.01,6.05-8.68,10.44-18.22,13.71-28.26,1.19-3.65,1.91-7.43,1.5-11.33Zm18.15,65.02c0,.07,0,.14,0,.21,2.62-.16,5.26-.13,7.85-.52,5.83-.87,9.69-4.62,11.02-9.98,1.13-4.55,1.17-9.56-.49-14.15-2.83-7.86-6.08-15.54-10.69-22.58-4.75-7.24-10.72-7.84-16.17-1.23-8.89,10.78-11.34,23.4-9.48,36.93.85,6.15,5.98,10.55,12.23,11.29,1.88.22,3.82.03,5.73.03Z"></path>
    <path class="cls-2" d="m1394.27,1517.81c-19.39,18.46-41.26,33.48-64.75,46.14-40.17,21.65-83.1,34.25-128.58,37.49-167.86,11.99-306.98-102.1-340.24-251.57-.83-3.73-1.54-7.48-2.3-11.23,8.3-1.3,16.64-1.73,25.04-1.65,14.39.14,28.78.18,43.17,0,17.35-.22,34.12,3.79,51.12,6.35,12.87,1.94,24.75,7.07,37.26,10.13,8.37,2.05,16.92,2.82,25.31,4.73,10.28,2.34,20.32,5.35,30.22,8.86,11.83,4.2,24.08,6.03,36.47,7.15,3.56.32,6.14,1.23,8.52,4.17,8.73,10.78,20.72,17.47,32.13,24.87,11.02,7.15,21.75,14.78,33.39,20.91,9.08,4.78,17.96,9.92,27.38,14.12,9.13,4.07,17.63,9.53,26.55,14.11,6.78,3.48,13.17,7.77,20.56,10.03,7.15,2.19,13.66,5.91,19.98,9.73,12.4,7.5,25.93,12.3,39.32,17.44,13.18,5.05,26.58,9.52,39.65,14.82,11.54,4.69,23.57,7.65,35.44,11.16,1.65.49,3.17,1.01,4.38,2.24Z"></path>
    <path class="cls-1" d="m693.87,1135.15c4.86-18.09,11.87-35.41,19.41-52.49,63.75-144.39,191.33-251.09,344.44-288.19,4.42-1.07,8.88-1.95,13.33-2.92.98,3.23-.46,6.23-1.37,9.07-2.74,8.58-1.86,16.38,1.63,24.83,8.59,20.79,20.47,39.77,31.19,59.39,2.14,3.91,5.08,7.52,8.2,10.75,14.24,14.75,24.67,31.97,32.99,50.55,1.43,3.2,1.94,6.81,2.87,10.23-9.85.27-19.56,1.89-29.18,3.75-73.78,14.29-135.6,49.62-185.22,106.08-14.42,16.4-27.24,34-37.43,53.41-.96.32-1.91.64-2.86.96-7.79-.95-15.6-.49-23.42-.27-2.23-1.3-4.69-.74-7.05-.74-23.74-.04-47.5-.65-71.2.21-14.3.52-28.71-.46-42.92,2.02-.93.16-1.92.1-2.87.03-16.33-1.14-31.09,3.85-45.2,11.45-1.66.89-3.34,1.89-5.35,1.91Z"></path>
    <path class="cls-1" d="m1641.5,403.36c3.04.14,5.35,1.97,7.81,3.4,99.38,57.68,186.62,129.99,261.68,217.01,26.8,31.08,51.65,63.64,74.48,97.74,1.46,2.17,2.86,4.38,4.15,6.36-.49,1.94-1.97,1.45-2.96,1.88-8.49-1.64-17.07-1.86-25.7-1.9-19.64-.1-39.29-.34-58.92-.29-34.75.08-69.5-.14-104.24.54-15.19.3-30.34,2.69-45.34,5.49-2.1.39-4.09,1.32-6.15,1.91-3.41.98-6.74,2.53-10.56,1.74-6.36-7.96-12.61-16.07-19.18-23.92-10.13-12.09-23.17-20.34-36.84-27.92-12.84-7.13-25.12-15.05-36.44-24.74-15.93-13.66-27.7-30.03-36.98-48.51-.54-1.07-.81-2.38-1.61-3.19-6.98-7.04-10.15-15.95-12.54-25.23-.95-3.67-2.25-7.38-2.42-11.11-.51-11.27-3.06-22.13-5.51-33.07-1.34-5.98-.15-11.68,3.56-16.95,12.17-17.26,21.1-36.22,28.75-55.83,2.42-6.19,6.14-11.91,7.15-18.6,1.18-7.86,4.21-14.87,7.97-21.85,3.93-7.31,6.62-15.29,9.85-22.97Z"></path>
    <path class="cls-5" d="m1820.53,858.12c1.4-2.21,3.25-2.33,4.8-2.26,10,.41,19.21-3.85,28.94-4.84,20.46-2.08,40.42-7.44,61.05-8.51,23.95-1.24,47.9-1.17,71.86-1.4,10.03-.1,20.05-.77,30.02-2.15,8.8-1.21,17.72-1.12,26.56-.27,9.75.94,12.77,3.28,13.83,13.08,2.09,19.36,2.47,38.87-4.56,57.44-3.45,9.12-8.54,17.68-17.24,23.23-5.18,3.31-11.04,4.85-16.97,5.25-19.31,1.32-37.48,7.06-55.55,13.4-1.57.55-3.23.87-4.84,1.33-10.69,3.07-15.69,10.11-15.11,21.26.31,6,2.59,7.59,8.22,5.61,1.14-.4,2.19-.96,3.43-.61,4.98,6.79,4.07,11.45-3.04,15.51-.62.35-1.34.62-1.83,1.1-12.6,12.43-28.46,20.15-43,29.78-12.91,8.55-23.85,18.88-31.92,32.4-7.69,12.89-15.94,25.48-25.46,37.18-2.98,3.66-5.28,7.92-7.64,12.04-6.37,11.12-14.66,20.66-23.96,29.35-5.98,5.58-11.19,11.84-16.26,18.19-6.13,7.68-12.91,14.65-20.02,21.41-10.94,10.39-23.17,19.19-34.62,28.93-11.28,9.59-22.53,19.16-35.01,27.15-9.23,5.91-17.74,12.89-27.34,18.24-4.85,2.71-5.43,3.02-9.38-.89-6.1-6.05-11.83-12.47-17.63-18.81-6.31-6.9-13.19-13.11-21.13-18.09-1.62-1.02-3.09-2.29-4.76-3.19-3.24-1.74-4.05-4.47-3.55-7.83.28-1.89.44-3.82.99-5.64,2.5-8.29.61-16.62.43-24.94-.29-13.66.57-27.21,2.19-40.8.99-8.28.28-16.77.21-25.17-.03-3.39.3-6.66,1.45-9.88,1.15-3.22,2.2-7,6.21-6.98,4.22.03,8.74.83,11.23,5.05,3.22,5.47,4.76,11.43,4.73,17.83-.04,8.61-.73,17.3,1.05,25.79,1.71,8.14,2.6,16.54,6.52,24.1,1,1.94,2.06,3.78,3.75,5.2,3.52,2.94,6.14,2.97,9.38-.27,7.05-7.04,12.67-15.27,15.96-24.55,6.43-18.12,9.88-37,10.15-56.22.23-16.82-1.62-33.43-9.75-48.72-1.98-3.73-.49-10.07,2.38-12.54,3.05-2.63,7.67-2.58,11.99.16,4.72,3,7.88,7.5,8.59,12.77.82,6.02,1.89,12.47-2.24,17.83.09.69,0,1.28.24,1.61,8.47,11.02,7.26,23.27,4.01,35.47-3.13,11.72-2.19,13.44,9.9,13.84,7.37.24,10.47-2.37,11.35-9.8.25-2.13.18-4.32.08-6.47-.12-2.56.46-4.58,2.79-6.13,4.7-3.12,6.03-8.11,5.65-13.23-.25-3.35.49-6.01,2-8.79,2.69-4.93,3.73-10.19,3.6-15.88-.26-11.72-.08-23.44-.08-35.47,3.4-1.02,5.66-.64,6.05,2.88.34,3.08.58,6.29.11,9.32-.66,4.32.6,7.01,4.73,7.76,1.07,2.18.85,4.16.67,6.02-.97,9.83,3.78,18.41,5.88,27.56.42,1.82,1.57,3.49,2.53,5.15,5.17,8.87,13.88,9.19,19.08.39,7.06-11.93,10.82-24.99,11.27-38.85.25-7.64.26-15.27-1.13-22.92-1.6-8.79.71-17.15,4.87-24.95,4.06-7.6,13.63-10.46,21.39-6.51,3.42,1.74,6.69,3.76,10.15,5.41,17.89,8.53,36.65,2.26,45.13-15.95,2.81-6.04,6.35-11.75,9.62-17.57,2.01-3.58,3.39-7.39,4.24-11.38.82-3.87,2.65-6.16,6.87-7.1,8.86-1.96,17.59-4.56,26.37-6.87,18.1-4.77,35.51-11.3,51.85-20.52.39-.22.91-.19,1.67-.34,3.36,4.85,5.68,10.36,7.74,15.92,1.79,4.83,4.99,6.52,9.89,6.52,5.86,0,11.34-1.68,16.88-3.14,2.29-.6,3.39-2.25,4.02-4.58.64-2.37.78-4.71.78-7.11,0-6,.1-12-.03-17.99-.12-5.09.64-9.76,2.75-14.59,3.92-8.96,1.68-16.33-8.22-20.07-12.33-4.66-23.92-3.08-34.12,4.07-9.16,6.42-18.36,10.21-29.66,10.93-12.23.78-24.45,1.02-36.61.49-14.05-.61-28.24-1.68-41.84-5.54-9.37-2.66-19.03-1.79-28.37-3.91-8.87-2.02-18.11-1.37-27.23-3.73Z"></path>
    <path class="cls-3" d="m1914.88,1122.46c2.39,13.18,4.89,26.35,7.16,39.55,8.5,49.56,11.4,99.5,9.87,149.72-1.16,38.15-5.25,76-12.31,113.52-.44,2.35-.72,4.73-1.08,7.1-8.68-4.42-16.72-9.61-23.55-16.74-7.59-7.92-16.87-13.24-27.78-15.29-5.25-.99-9.45-3.36-13.73-6.69-11.86-9.23-24.38-17.43-38.85-22.41-10.81-3.73-21.19-8.62-32.17-12.03-8.5-2.64-16.82-2.75-25.35-1.18-9.75-13.49-24.4-20.22-38.35-27.84-6.87-3.75-14.04-6.97-21.63-10.71,5.62-14.88.92-29.07-.8-43.89,5.35-4.62,11.88-8.13,18.1-11.99,19.34-11.97,37.44-25.67,55.58-39.33,12.41-9.34,24.41-19.25,35.79-29.76,11.91-11,22.89-22.98,31.67-36.85,4.58-7.23,9.67-14.17,15.33-20.72,7.32-8.48,13.56-17.83,19.11-28.28,10.72,1.63,21.21,4.7,31.3,8.84,3.9,1.6,8.35,2.07,11.71,4.95Z"></path>
    <path class="cls-5" d="m1783.43,144.25c1,.53,1.64,1.45,1.4,2.37-4.01,15.47-7.17,31.36-19.5,43.05-6.99,6.63-15.28,11.56-23.13,17.02-10.98,7.63-22.07,15.15-33.48,22.12-19.36,11.82-38.94,23.21-59.3,33.36-12.94,6.45-24.91,15.15-35.95,24.78-4.22,3.68-6.76,8.7-9.88,13.18-3.81,5.45.09,12.43,6.84,13.05,3.08.28,6.27.21,9.31-.28,3.45-.55,6.39-.22,7.83,3.21,1.43,3.4-.45,6.09-2.93,8.2-5.12,4.36-10.73,8.14-16.66,11.22-13.66,7.1-26.19,15.52-37.69,25.94-6.53,5.91-11.5,12.77-16.84,19.44-2.8,3.5-4.21,8.02-4.93,12.61-.72,4.58.97,7.56,5.41,8.32,3.56.61,7.03.33,10.5-1.29,9.6-4.49,18.46-10.14,26.99-16.35,1.34-.98,2.42-2.36,4.59-2.43,1.01,3.96-.34,7.58-2.34,10.69-5.82,9.04-12.12,17.68-19.79,25.37-5.66,5.68-12.3,8.93-19.73,11-8.69,2.42-16.32,7-23.35,12.31-15.19,11.49-8.02,28.03,4.31,33.34,2.18.94,4.64,1.26,6.74,3.38.1,4.27-3.68,6.76-5.51,10.22-3.93,7.45-10.13,11.7-18.27,13.75-5.55,1.4-10.9,3.61-15.83,6.65-6.91,4.26-11.41,15.59-8.98,23.26,1.25,3.96,3.1,7.55,8.15,7.92,2.04.15,4.02,1.03,6.41,1.69-2.29,1.44-4.18,2.89-6.28,3.9-6.64,3.21-7.75,9.4-8.28,15.65-.37,4.4,2.74,7.1,6.51,8.53,6.94,2.64,19.84,1.73,25.5-7.73,4.42-7.39,8.58-8.43,17.63-5.35,1.63,4.41.32,7.87-3.5,10.54-1.76,1.23-3.5,2.5-5.22,3.79-2.75,2.07-4.66,4.69-5.79,8.01-1.45,4.27.46,7.54,2.97,10.48,2.33,2.73,5.61,2.5,8.67,1.41,3.15-1.13,6.18-2.61,9.25-3.96,5.53-2.43,11.42-1.82,13.16,1.37,1.55,2.85-2.85,9.59-7.72,11.4-6.32,2.34-12.67,4.59-16.95,10.22-2.46,3.23-5.11,6.4-6.99,9.96-3.22,6.07-1.83,13.04,4.85,16.53,6.93,3.62,13.14,2.68,17.57-3.36,1.28-1.74,2.74-3.35,3.89-5.16,1.44-2.26,3.65-3.02,6.03-3.45,4.13-.74,6.74,1.38,6.11,5.55-.51,3.35-.62,6.84-3.7,9.65-3.2,2.92-4.69,7.31-4.59,11.7.19,7.85,4.45,12.1,12.46,13.1,1.17.15,2.41-.1,3.78,1.02.11.53.39,1.43.47,2.35.89,10.47,12.04,16.86,23.47,10.75,1.87-1,3.49-2.53,5.12-3.93,5.67-4.88,9.65-5.67,14.9-2.85,4.91,2.63,6.23,6.01,4.92,13.51-1.26,7.2.32,13.79,3.91,19.98,3.63,6.27,9.16,9.45,16.38,10.11,4.75.44,9.45,1.35,14.17,2.11,4.24.69,6.33,3.03,5.5,7.56-13.57,11.04-25.51,23.58-34.3,39.34-5.07-3.59-7.32-9.02-10.9-13.32-9.14-10.97-17.4-22.57-30.02-30.4-7.39-4.59-13.79-11.17-19.65-17.74-8.06-9.04-17.43-16.32-27.18-23.26-.58-.42-1.33-.66-1.81-1.16-10.68-10.93-24.29-18.42-34.71-29.69-4.05-4.38-8.46-8.51-13.11-12.26-11.56-9.32-18.08-22.04-24.33-34.98-.31-.65-.56-1.34-.96-1.93-7.59-11.14-8.23-23.39-6.67-36.36,1.22-10.18,2.29-20.46,1.9-30.78-.39-10.34.41-20.57,2.67-30.65,1.38-6.14,1.72-12.42,1.45-18.56-.28-6.37,2.31-10.97,6.01-15.49,6.07-7.41,11.37-15.35,16.42-23.48,5.35-8.62,8.85-18.03,11.65-27.67,3.99-13.73,7.89-27.51,11.19-41.42,1.31-5.53,3.7-10.91,3.5-16.78-.07-2.11,1.42-3.47,2.62-4.96,8.64-10.66,15.08-22.66,20.77-35.04,2.4-5.22,4.76-10.47,7.38-15.58,7.74-15.1,10.64-31.01,8.53-47.85-.21-1.66-.08-3.37-.37-5.01-.61-3.41.52-5.89,3.13-8.19,12.73-11.25,25.23-22.71,38.9-32.88,10.93-8.13,21.98-16.09,32.92-24.21,12.49-9.27,26.15-16.77,38.7-25.92,11.33-8.26,23.62-15,35.21-22.86,8.44-5.73,17.54-10.82,25.6-16.95,13.57-10.32,28.58-18.16,42.76-27.38,9-5.86,17.77-12.01,25.89-19.06,5.99-5.2,12.96-9.02,19.54-13.36,9.77-6.44,19.06-13.68,29.96-18.34,6.48-2.77,7.72-3.13,16.01-2.12.78,2.72-1.33,3.8-2.96,5.09-15.17,12.06-30.34,24.13-45.55,36.14-19.15,15.13-38.34,30.2-57.49,45.31-22.73,17.93-45.46,35.85-68.16,53.82-12.94,10.25-25.79,20.62-38.73,30.87-2.61,2.07-5.36,3.99-8.17,5.79-8.32,5.34-12.28,13.17-12.65,22.77-.24,6.41,2.1,8.31,8.59,8.92,6.59.62,12.29-1.18,17.32-5.36,26.31-21.87,54.02-41.95,80.81-63.21,14.06-11.16,28.45-21.88,42.71-32.78.9-.68,1.71-1.66,2.99-1.52Z"></path>
    <path class="cls-5" d="m1520.82,286.73c3.14,10.41-.66,17.3-5.92,23.45-10.98,12.82-24.39,22.76-38.43,32-17.78,11.7-35.26,23.85-51.66,37.44-7.27,6.02-12.16,14.11-17.69,21.6-3.7,5-7.13,10.19-10.53,15.39-2.12,3.25-3.41,6.77-3.24,10.83.29,6.89,3.21,9.27,9.68,6.89,6.96-2.56,13.94-5.32,20.12-9.42,9.13-6.06,18.55-11.75,26.05-20.06,2.9-3.21,4.69-7.2,7.83-10.12,6.05,3.41,6.89,5.75,4.13,11.15-4.07,7.95-10.49,13.59-18.18,17.69-8.02,4.28-16.31,8.08-24.52,11.98-2.4,1.14-4.66,2.38-6.62,4.22-2.36,2.2-3.35,4.79-2.06,7.76,1.42,3.28,4.3,4.46,7.71,3.88,2.34-.4,4.66-1.12,6.89-1.95,10.1-3.78,20.09-7.83,29.42-13.33,2.07-1.22,4.2-2.32,6.85-2.92,2.71,1.93,3.32,4.42,2.62,7.92-.91,4.54-2.59,8.54-4.88,12.59-8.89,15.71-22.78,25.48-38.29,33.52-1.49.77-3.06,1.42-4.41,2.4-2.52,1.83-2.38,4.6-1.9,7.22.53,2.9,2.79,3.59,5.42,3.61,3.6.03,7.17.17,10.54-1.57,1.39-.72,2.92-1.61,5.07-.91-2.08,14.78-7.1,28.16-16.21,39.95-2,2.59-4.96,3.69-7.48,5.47-4.31,3.05-5.64,5.47-4.28,8.65,1.28,2.99,6.82,5.99,10.25,5.3,2.07-.42,4.06-1.29,6.25-2.02,1.51,4.38.79,8.19-1.36,11.84-2.43,4.12-4.34,8.68-7.38,12.27-7.33,8.66-4.11,16.29,7.15,18.41.92.17,1.84.4,2.71.59,1.8,5.51.08,10.7-1.17,15.7-1.07,4.29-1.84,8.28,1.97,11.11,3.7,2.75,8.06,2.67,12.26.58,1.03-.51,2.05-1.04,3.01-1.53,2.46,1.91,1.86,4.48,2.31,6.76,2.56,12.85,5.13,14.66,15.59,16.27,7.39,1.14,11.06,4.77,11.62,12.27.79,10.53,6.03,17.41,15.92,20.71,2.99,1,4.84,2.5,5.75,5.68,3.48,12.16,11.42,19.57,23.43,24.03,9.79,3.63,18.78,9.44,28.13,14.27,5.3,2.74,10.5,5.69,15.92,8.16,6.69,3.05,11.81,8,16.61,13.25,7,7.66,3.3,20.73-6.99,23.83-16.25,4.9-32.71,6.53-49.28.97-7.93-2.67-15.99-4.92-23.27-9.22-3.5-2.07-7.36-3.6-9.12-7.72-.73-1.71-2.3-2.19-4.01-2.64-16.25-4.32-28.18-14.74-38.21-27.62-3.11-4-5.48-8.54-3.34-14.06-6.69-3.86-12.63-7.72-16.82-13.76-5.66-8.16-8.53-17.66-12.95-26.41-.4-.8-.69-1.95-.43-2.74,1.11-3.5-.58-5.27-3.44-6.85-13.77-7.6-17.61-20.81-18.69-35.03-.31-4.08-.85-6.74-4.57-8.6-4.32-2.15-6.13-6.69-8.64-10.36-5.97-8.7-10.29-18.28-13.5-28.38-.98-3.11-.7-6.15-.9-9.23-.19-2.88-.99-5.42-4.53-5.13-3.65.3-5.17-2.47-6.52-4.71-4.63-7.67-6.73-16.29-4.04-24.85,5.8-18.41,4.56-36.71,1.63-55.34-1.71-10.86-4.93-21.41-5.97-32.85,59.16-52.32,118.36-105.06,178.64-158.27Z"></path>
    <path class="cls-1" d="m2100.05,948.41c3.74,11.87,7.49,23.73,11.21,35.6,15.74,50.17,27.19,101.33,35,153.31.11.71.06,1.44.09,2.16-4.44,1.93-9.15,2.98-13.92,2.99-7.9.03-15.73.92-23.59,1.41-3.25.2-7.44,1.27-8.99-2.54-1.53-3.75-2.9-8.08-.62-12.21,1.98-3.58,4.44-6.86,7.91-9.13,6.19-4.05,12.22-8.39,19.16-11.17,1.58-.63,3.08-1.35,3.97-2.89,1.39-2.4.4-5.31-2.27-5.49-12.1-.83-23.91-4.08-36.3-3.01-14.76,1.28-29.15,5.14-43.95,5.74-12.45.51-24.5,3.77-36.82,5.08-12.38,1.32-24.88,2.6-37.12-.42-18.46-4.56-31.83-15.14-38.96-33.45-5.8-14.91-3.86-37.7,10.88-50.7,7.79-6.87,16.13-12.5,24.93-17.7,11.29-6.68,21.93-14.51,34.05-19.75,15.97-6.91,32.1-13.32,48.65-18.85,14.17-4.73,27.9-11,41.3-17.76,1.79-.9,3.4-1.69,5.4-1.23Z"></path>
    <path class="cls-2" d="m894.73,1119.59c10.18-19.41,23.01-37,37.43-53.41,49.62-56.46,111.44-91.78,185.22-106.08,9.62-1.86,19.32-3.48,29.18-3.75,6.04,20.5,4.15,40.03-7.23,58.37-5.41,8.71-10.82,17.42-17.46,25.28-7.48,8.85-16.82,15.55-26.12,22.19-14.58,10.4-30.09,19.38-45.36,28.71-12.67,7.74-25.57,15.12-39.97,18.95-10.58,2.81-21.51,4.34-32.28,6.45-11.05,2.16-22.21,2.79-33.46,3.06-14.34.34-28.66,1.87-43.03,1.29-2.32-.09-4.82.77-6.89-1.05Z"></path>
    <path class="cls-5" d="m1883.69,900.24c-5.95,2.87-11.67,6.45-17.9,8.48-14.14,4.61-27.39,11.29-41.11,16.85-17.05,6.91-34.04,13.97-51.06,20.94-13.32,5.45-25.74,12.35-37.13,21.29-7.19,5.65-15.54,9.4-25.35,9.81-4.28-4.04-2.71-8.67-.37-12.9,4.17-7.55,11.22-11.58,19.2-13.97,8-2.4,16.07-4.57,24.18-6.55,5.73-1.39,10.63-4.27,15.37-7.54,3.73-2.57,5.37-6.69,6.7-10.73,1.34-4.06,2.14-8.33,2.9-12.56,1.04-5.78,3.67-10.92,6.59-15.83,2.41-4.05,6.95-5.23,11.27-5.2,8.3.05,16.64.32,24.87,1.27,9.51,1.1,19.06,1.11,28.59,1.99,10.94,1,21.77,2.85,33.26,4.66Z"></path>
    <path class="cls-5" d="m1771.33,822.49c-3.37,1.3-6.42,1.56-9.57,1.55-13.89-.07-27.77-.08-41.66,0-3.14.02-6.16-.51-9.22-1.05-6.57-1.16-10.38-4.91-12.55-11.25-2.1-6.14-4.29-12.04-3.79-18.75.57-7.73,2.74-11.52,9.87-14.07,5.15-1.85,10.41-3.6,15.76-4.68,12.7-2.54,24.04,1.35,34.56,8.28.8.52,1.82,1,2.23,1.76,4.3,7.97,10.91,14.47,14.52,22.85,2.68,6.23,2.6,8.16-.15,15.34Z"></path>
    <path class="cls-5" d="m1888.64,791.36c-1.22,2.96-2.1,5.19-3.04,7.39-4.06,9.42-11.02,16.06-20.02,20.69-6.21,3.19-12.21,1.12-17.94-1.28-16.58-6.95-22.02-23.13-22.38-37.7-.15-6.19,2.46-11.59,5.94-16.59,2.07-2.97,4.63-3.74,8.09-2.58,8.61,2.9,17.14,5.65,24.41,11.64,7.91,6.51,16.47,12.23,24.95,18.44Z"></path>
    <path class="cls-1" d="m2020.97,777.17c4.78,10.9,11.58,20.72,16.78,31.4,1.02,2.1,2.74,3.98,2.09,6.6-13.57,6-27.33,11.28-42.43,11.77-7.44.24-14.67-.2-21.52-3.77-4.71-2.46-8.97-5.34-8.96-10.98,0-6.5,2.46-12.06,9.05-14.93,9.18-3.98,18.28-8.16,27.45-12.14,5.89-2.56,11.23-6.32,17.53-7.95Z"></path>
    <path class="cls-5" d="m1570.95,1088.24c-1.01-14.6-1.66-28.23,3.29-41.45,1.5-4.02,2.78-8.25,5.03-11.84,8.99-14.34,22.36-21.21,39.7-16.09,4.55,1.35,6.52,4.11,6.62,9.03.09,4.97-1.06,6.86-5.97,8.47-3.15,1.03-6.49,1.47-9.74,2.22-8.67,1.99-15.92,5.74-20.82,13.81-6.47,10.65-12.26,21.56-16.24,33.39-.2.6-.8,1.07-1.88,2.45Z"></path>
    <path class="cls-5" d="m1616.64,964.62c-1.98,8.2-3.46,9.48-11,9.55-10.01.1-20.04-.61-29.85,2.4-6.03,1.85-11.41,4.41-15.93,9.04-3.74,3.84-7.68,8.07-14.01,7-2.97-8.61.33-17.88,7.83-23.17,7.33-5.17,15.57-7.08,24.32-7.24,11.23-.21,22.47-.34,33.7.4,1.7.11,3.32.36,4.94,2.02Z"></path>
    <path class="cls-5" d="m1704.49,906.43c5.72,4.94,6.64,8.6,3.36,14.37-6.06,10.69-14.84,18.6-25.76,24.03-11.01,5.48-11.09,5.32-19.25,4.24.29-2.68,2.87-3.01,4.42-4.06,5.44-3.68,9.76-8.22,13.09-13.93,3.11-5.34,6.72-10.4,10.29-15.46,3.29-4.65,8.07-7.29,13.85-9.19Z"></path>
    <path class="cls-5" d="m1626.91,886.66c-.63,3.7-3.51,4.21-5.86,5.15-11.05,4.41-22.5,3.78-33.94,2.27-3.76-.5-7.53-1.34-11.05-2.94-2-.91-4.13-1.89-4.1-4.46.03-2.74,1.08-5.18,3.71-6.48,1.27-.63,2.74-1.39,4.05-1.28,8.26.68,16.65-.77,24.83,2.22,3.4,1.24,7.52.44,11.3.73,5.71.44,5.71.51,11.06,4.78Z"></path>
    <path class="cls-5" d="m1930.62,756.08c12.92-4.55,41.52-2.76,52.26,3.44-17.27-.56-30.71,7.96-45.05,15.06-3.16-6.16-6.22-11.68-7.21-18.5Z"></path>
    <path class="cls-5" d="m1703.48,867.77c.51-6.1,4.32-7.19,8.2-7.27,6.23-.13,12.32-.65,18.28-2.56,1.08-.35,2.4-.43,3.49-.15,3.44.89,7.13,1.77,8.48,5.61.95,2.7-1.93,7.01-6.49,8.29-11.03,3.1-21.91,3.17-31.97-3.91Z"></path>
    <path class="cls-5" d="m1458.74,974.89c.27-4.15,2.12-6.7,5.29-8.42,8.58-4.66,17.16-9.3,26.62-12,2.15-.61,4.21-.92,5.94.93-.96,12.95-24.25,25.11-37.85,19.49Z"></path>
    <path class="cls-5" d="m2085.68,874.19c2.56.32,4.74.32,6.74.92,2.32.7,4.49,2.12,4.89,4.74.84,5.44,1.26,10.91-1.58,16.02-3.03,5.44-7.18,7.48-13.51,6.46-2.02-.33-4.37.51-6.52-2.17,3.71-7.95,5.52-17.04,9.99-25.97Z"></path>
    <path class="cls-5" d="m2083.88,846.84c-.79-10.2-5-17.75-10.73-24.86,6.09-2.65,11.79-2.69,17.3-1.02,7.72,2.35,10.01,10.69,5.24,17.26-2.77,3.82-6.93,5.48-11.81,8.62Z"></path>
    <path class="cls-5" d="m1592.47,938.84c.06,4.49-2.19,6.69-7.25,7.32-6.33.79-14.89-4.09-17.53-9.99-1.77-3.97-.39-6.32,4.08-6.65,6.35-.47,12.26.84,17.66,4.41,1.98,1.31,3.3,2.66,3.03,4.92Z"></path>
    <path class="cls-5" d="m2167.53,850.96c1.67,8.93-3.03,20.46-10.03,24.88-1.69,1.07-3.29,2.02-5.17.52-1.62-1.29-1.24-2.89-.64-4.53,2.73-7.4,6.52-14.17,11.99-19.91.78-.82,1.86-1.5,3.84-.96Z"></path>
    <path class="cls-5" d="m2163.26,828.13c-7.48,1.99-14.02-.77-20.25-4.35-2.72-1.56-3.14-3.86-2.9-8.75,12.07-2.2,22.74,4.29,23.15,13.1Z"></path>
    <path class="cls-5" d="m1479.71,378.4c4.8,8.49,1.88,15.09-7.04,16.82-3.75.73-6.77-2.95-5.39-6.97,1.94-5.64,5.84-9.19,12.43-9.85Z"></path>
    <path class="cls-5" d="m2223.59,851.97c.78-7.26,4.3-13.2,4.11-19.94,9.01.93,10.64,3.8,6.57,10.9q-2.56,4.45-10.68,9.04Z"></path>
    <path class="cls-5" d="m2223.46,804.73c-5.85,5.87-13.01,4.43-19.16,6.35-2.97-1.74-3.67-4.82-6.84-8.37,9.63.6,17.52-1.32,26,2.02Z"></path>
    <path class="cls-2" d="m868.46,1120.27c7.81-.22,15.63-.68,23.42.27-7.82.26-15.63.72-23.42-.27Z"></path>
    <path class="cls-5" d="m1176.14,998.48c-.22.31-.43.62-.65.93-.09-.29-.32-.64-.23-.86.19-.44.59-.38.98.07,0,0-.1-.14-.1-.14Z"></path>
    <path class="cls-5" d="m1217.51,1919.28c4.58,13.73,9.16,27.45,13.97,41.85h-29.3c4.66-14.18,9.21-28.06,13.77-41.95.52.03,1.04.07,1.56.1Z"></path>
    <path class="cls-5" d="m888.37,1961.33h-29.15c3.97-14.58,9.13-28.28,14.02-43.96,5.88,15.16,10.04,29.17,15.13,43.96Z"></path>
    <path class="cls-5" d="m1641.68,1961.24h-28.65c1.25-7.66,10.85-36.62,14.32-42.78,4.85,14.48,9.49,28.34,14.33,42.78Z"></path>
    <path class="cls-5" d="m1876.23,1941.41v-34.3c9.4.09,18.63-.99,27.73,1.26,7.21,1.78,11.73,8.33,11.7,16.14-.03,7.98-4.4,14.21-11.49,16.39-5.64,1.73-20.91,2.05-27.94.51Z"></path>
    <path class="cls-4" d="m1135.74,1253.34c-.55-13.1,2.72-23.98,7.19-34.67,4.54-10.87,10.2-20.93,17.35-30.4,10.21-13.53,24.09-18.01,39.94-18.68,5.8-.24,7.13,1.96,4.13,6.97-6.27,10.46-12.7,20.82-17.46,32.09-5.15,12.19-8.02,24.91-9.63,38.04-2.14,17.53,4.43,32.83,11.19,48.2,2.25,5.12,5.32,9.6,9.61,13.2,1.55,1.3,2.72,2.72,2.72,4.81-.01,7.88.81,15.84-2.31,23.42-.73,1.77-1.42,3.51-2.7,5.02-5.57,6.56-9.54,6.52-15.17.04-4.85-5.58-10.59-10.28-15.74-15.59-7.29-7.53-12.23-16.42-16.64-25.61-5.39-11.21-9.33-23-11.46-35.34-.74-4.28-.74-8.56-1.01-11.49Z"></path>
    <path class="cls-4" d="m1447.2,1380.03c-4.23-.24-8.4.19-12.7-1.29-11.62-3.98-14.2-17.04-9.72-25.91,2.63-5.22,7.54-7.48,13.01-7.52,7.42-.06,14.78-.86,22.17-1.13,20.19-.73,38.14-7.62,54.24-19.63,1.34-1,2.53-2.21,3.92-3.14,8.35-5.56,16.25-4.75,23.33,2.32,7.5,7.49,9.13,16.42,5.28,26.34-4.79,12.32-14.29,18.25-26.79,19.44-8.12.77-15.93,2.98-24,3.95-4.5.54-9.01.45-13.53,1.04-11.8,1.53-23.03,6.6-35.22,5.53Z"></path>
    <path class="cls-4" d="m1598.76,1487.64c-25.1-.61-50.19-2.06-75.32-1.56-5.07.1-7.78-2.71-7.03-7.55.69-4.5,2.29-8.95,7.4-10.53,4.56-1.4,9.1-3.05,13.98-2.89,10.27.33,20.53-.55,30.81.83,7.36.99,14.76-.86,22.1-1.65,6.86-.74,13.64-2.13,20.57-2.67,9.64-.76,18.16-3.95,22.38-13.93,1.61-3.81,4.31-6.55,8.5-8.16,5.02-1.94,9.33-1.72,14.45.14,10.73,3.88,17.31,11.47,21.99,21.29,5.59,11.74-.96,23.81-13.94,24.01-12.21.19-24.33,1.47-36.52,1.78-9.79.25-19.56,1.14-29.37.89Z"></path>
    <path class="cls-4" d="m1533.68,1419.03c9.82,0,19.65-.35,29.45.09,11.56.52,21.45-3.75,30.76-9.76,3.04-1.96,6.11-3.78,9.38-5.17,9.74-4.14,18.57-1.95,26.67,4.33,4.93,3.82,6.36,9.23,4.91,14.76-1.43,5.47-3.94,10.69-9.04,14.21-7.96,5.5-16.2,10.7-26.14,10.53-16.06-.28-32.3,3.08-48.19-2.38-5.84-2-12-2.97-18.33-2.76-7.89.27-15.8-.03-23.71.1-4.14.07-7.91-.97-11.86-2.12-7.13-2.08-9.37-7.56-11.22-13.62-1.04-3.41.57-5.59,3.7-6.66,3.17-1.09,6.43-1.63,9.85-1.59,11.25.13,22.51.05,33.77.05Z"></path>
    <path class="cls-4" d="m1535.38,1404.07c-7.67,0-15.35.09-23.02-.04-3.48-.06-6.47.7-9.43,2.68-10.64,7.12-22.18,6.5-33.71,2.87-5.46-1.72-8.66-6.12-9.03-11.86-.33-5.18,3.24-8.34,7.35-10.61,7.81-4.32,15.88-7.68,25.17-7.03,5.25.37,10.55-.1,15.82.11,7.76.3,15.01-1.84,22.51-3.37,13.02-2.65,22.52-9.61,30.52-19.55,1.18-1.47,2.89-2.51,4.31-3.79,8.19-7.38,18-6.07,23.28,3.71,4.85,8.98,6.74,18.45.9,27.98-1.13,1.84-2.25,3.68-3.22,5.6-3.03,5.96-7.95,9.44-14.35,10.86-6.3,1.39-12.57,2.83-19.14,2.5-5.98-.3-11.99-.06-17.98-.06Z"></path>
    <path class="cls-4" d="m699.47,1238.28c-.66-18.88,16.6-36.04,36.17-35.8,16.59.2,35.46,13.45,35.62,35.73.15,20.43-16.24,36.21-35.92,36.17-21.99-.04-36.59-18.52-35.87-36.11Z"></path>
    <path class="cls-4" d="m1368.43,1395.92c-6.49.64-12.57-2.38-18.14-6.07-8.57-5.68-16.34-12.37-21.87-21.27-4.13-6.65-2.42-16.51,3.82-21.24,9.49-7.2,20.49-6.82,32.25.14,8.6,5.09,16.5,11.3,23.77,18.25,8.08,7.73,6.36,20.68-3.52,25.8-6.37,3.3-10.15,4.36-16.32,4.4Z"></path>
    <path class="cls-4" d="m784.08,1296.59c-13.5,0-22.35-9.08-22.32-22.37.02-7.03,4.63-10.07,9.86-12.62,5.6-2.73,11.75-3.94,17.73-5.53,8.45-2.26,15.62-7,23.02-11.33,2.77-1.62,4.39-4.34,6.09-6.95,1.23-1.89,2.74-3.7,5.22-2.47,2.18,1.08,2.62,3.2,2.07,5.56-2.79,11.86-6.1,23.55-11.24,34.65-2.51,5.41-4.86,10.79-9.84,14.63-6.38,4.91-10.6,6.44-20.58,6.44Z"></path>
    <path class="cls-4" d="m1334.79,1322.52c-6.55.18-11.89-3.16-15.83-8.13-5.8-7.3-12.32-13.94-18.11-21.22-5.48-6.89-4.42-13.09,2.45-18.59,10.89-8.71,25.76-8.05,36.06.94,8.29,7.23,12.69,16.56,15.84,26.67,1.83,5.87.13,10.76-5.1,14.37-4.58,3.16-9.18,6.08-15.31,5.96Z"></path>
    <path class="cls-4" d="m1344.58,1237.61c-.8-17.7,7.3-30,23.01-37.63,4.99-2.43,7.08-1.94,10.52,2.18,3.06,3.66,4.11,7.68,4.24,12.5.5,19.05-8.99,31.48-25.34,39.55-6.39,3.15-9.78,1.55-11.92-5.2-.22-.68-.48-1.39-.49-2.09-.05-3.1-.02-6.21-.02-9.32Z"></path>
    <path class="cls-4" d="m1368.96,1167.42c-.08-7.33-.56-13.75,2.83-19.8,3.6-6.42,9.03-9.99,16.03-10.64,10.25-.95,17.11,10.26,13.18,20.79-4.1,11-11.56,19.75-19.17,28.31-4.11,4.62-9.22,2.73-11.17-3.21-1.76-5.39-.93-10.92-1.71-15.45Z"></path>
    <path class="cls-4" d="m1426.83,789.53c.41,3.9-.31,7.68-1.5,11.33-3.27,10.04-7.66,19.59-13.71,28.26-3.25,4.67-7.88,7.65-13.44,9.01-4.53,1.11-8.17-.26-10.27-4.37-1.84-3.59-3.14-7.26-2.24-11.69,1.14-5.59.91-11.41,1.91-17.09,1.39-7.85,3.41-15.36,7.8-22.16,1.89-2.93,2.64-6.32,5.34-9.06,7.9-7.98,21.67-5.75,25.3,7.23.8,2.87.67,5.68.79,8.53Z"></path>
    <path class="cls-4" d="m1444.98,854.54c-1.91,0-3.84.19-5.73-.03-6.25-.74-11.38-5.14-12.23-11.29-1.86-13.52.59-26.14,9.48-36.93,5.45-6.61,11.43-6.01,16.17,1.23,4.61,7.04,7.86,14.72,10.69,22.58,1.66,4.59,1.62,9.61.49,14.15-1.33,5.36-5.19,9.11-11.02,9.98-2.58.38-5.23.36-7.85.52,0-.07,0-.14,0-.21Z"></path>
  </g>
</svg>
